<svg width="44" height="44" viewBox="0 0 44 44" fill="none" xmlns="http://www.w3.org/2000/svg">
<circle cx="22" cy="22" r="22" fill="#E0F4EC"/>
<path d="M17.2556 27.9311C17.5917 27.9311 17.8736 27.8172 18.1014 27.5894C18.3292 27.3617 18.4427 27.0801 18.4419 26.7448V20.8134C18.4419 20.4773 18.328 20.1954 18.1002 19.9676C17.8725 19.7399 17.5909 19.6264 17.2556 19.6272C16.9195 19.6272 16.6375 19.741 16.4098 19.9688C16.182 20.1966 16.0685 20.4781 16.0693 20.8134V26.7448C16.0693 27.0809 16.1832 27.3629 16.411 27.5906C16.6387 27.8184 16.9203 27.9319 17.2556 27.9311ZM22.0007 27.9311C22.3368 27.9311 22.6187 27.8172 22.8465 27.5894C23.0743 27.3617 23.1878 27.0801 23.187 26.7448V17.2546C23.187 16.9185 23.0731 16.6366 22.8453 16.4088C22.6176 16.181 22.336 16.0676 22.0007 16.0683C21.6646 16.0683 21.3826 16.1822 21.1549 16.41C20.9271 16.6378 20.8136 16.9193 20.8144 17.2546V26.7448C20.8144 27.0809 20.9283 27.3629 21.1561 27.5906C21.3838 27.8184 21.6654 27.9319 22.0007 27.9311ZM26.7458 27.9311C27.0819 27.9311 27.3638 27.8172 27.5916 27.5894C27.8194 27.3617 27.9329 27.0801 27.9321 26.7448V24.3723C27.9321 24.0362 27.8182 23.7542 27.5904 23.5265C27.3627 23.2987 27.0811 23.1852 26.7458 23.186C26.4097 23.186 26.1277 23.2999 25.9 23.5276C25.6722 23.7554 25.5587 24.0369 25.5595 24.3723V26.7448C25.5595 27.0809 25.6734 27.3629 25.9012 27.5906C26.1289 27.8184 26.4105 27.9319 26.7458 27.9311ZM13.6968 32.6762C13.0443 32.6762 12.4856 32.4437 12.0206 31.9787C11.5555 31.5136 11.3234 30.9553 11.3242 30.3036V13.6958C11.3242 13.0433 11.5567 12.4846 12.0218 12.0196C12.4868 11.5546 13.0451 11.3225 13.6968 11.3232H30.3046C30.9571 11.3232 31.5158 11.5558 31.9808 12.0208C32.4458 12.4858 32.678 13.0441 32.6772 13.6958V30.3036C32.6772 30.9561 32.4447 31.5148 31.9796 31.9798C31.5146 32.4449 30.9563 32.677 30.3046 32.6762H13.6968ZM13.6968 30.3036H30.3046V13.6958H13.6968V30.3036Z" fill="#048B9F"/>
</svg>
