<svg width="137" height="27" viewBox="0 0 137 27" fill="none" xmlns="http://www.w3.org/2000/svg">
<g clip-path="url(#clip0_215_161)">
<path d="M37.3481 4.83691C33.7581 4.83691 31.9459 6.52935 31.9459 9.91422V10.598H29.9629V13.4017H31.9459V24.0692H34.9889V13.4188H38.237V10.6322H35.006V10.4613C35.006 8.51241 35.8779 7.70893 37.8267 7.70893C38.0148 7.70893 38.2712 7.70893 38.5447 7.70893V4.8711L37.3481 4.83691ZM45.4854 10.2903C41.6732 10.2561 38.5618 13.3162 38.5447 17.1284C38.5447 17.1797 38.5447 17.2481 38.5447 17.2994C38.4764 19.197 39.1944 21.0433 40.5278 22.3767C43.2801 25.0265 47.6395 25.0265 50.3918 22.3767C51.7252 21.0604 52.4603 19.2312 52.4261 17.3507C52.4774 15.4702 51.7423 13.6581 50.3918 12.3247C49.0926 11.0083 47.3317 10.2732 45.4854 10.2903ZM45.4854 21.539C43.2972 21.539 41.7245 19.7953 41.7245 17.3336C41.7245 14.8719 43.2972 13.1281 45.4854 13.1281C46.5112 13.094 47.4856 13.5213 48.1523 14.3077C48.8703 15.1625 49.2293 16.2566 49.1609 17.3507C49.2293 18.4619 48.8703 19.556 48.1523 20.3937C47.4685 21.18 46.4941 21.5903 45.4854 21.539ZM60.7345 10.2903C56.9222 10.239 53.7938 13.2649 53.7425 17.0772C53.7425 17.1455 53.7425 17.231 53.7425 17.2994C53.6741 19.197 54.4092 21.0433 55.7768 22.3767C58.5292 25.0265 62.8885 25.0265 65.6408 22.3767C66.9743 21.0604 67.7094 19.2312 67.6752 17.3507C67.7265 15.4702 66.9914 13.6581 65.6408 12.3247C64.3587 10.9912 62.5808 10.239 60.7174 10.2732H60.7345V10.2903ZM60.7345 21.539C58.5463 21.539 56.9735 19.7953 56.9735 17.3336C56.9735 14.8719 58.5463 13.1281 60.7345 13.1281C61.7602 13.094 62.7346 13.5213 63.4013 14.3077C64.1364 15.1454 64.5296 16.2395 64.4783 17.3507C64.5296 18.4619 64.1364 19.556 63.4013 20.3937C62.7175 21.1629 61.7431 21.5732 60.7174 21.5049L60.7345 21.539ZM75.5561 10.2903C73.7611 10.239 72.0345 10.9741 70.8207 12.3247C69.5898 13.6923 68.9231 15.4702 68.9744 17.2994C68.906 19.1628 69.5557 20.992 70.8207 22.3767C72.0345 23.7101 73.7611 24.4623 75.5561 24.4111C76.9921 24.4794 78.3768 23.9324 79.3684 22.9067V24.1204H82.4284V4.83691H79.3342V11.6238C78.2743 10.7177 76.9408 10.2561 75.5561 10.2903ZM75.7784 13.0598C78.0862 13.0598 79.3855 14.9232 79.3855 17.3336C79.3855 19.744 78.1375 21.6074 75.7784 21.6074C73.4192 21.6074 72.1883 19.744 72.1883 17.2823C72.1883 14.8377 73.5047 13.0598 75.7784 13.0598ZM90.3949 18.9918C91.6257 19.3337 92.036 19.7269 92.036 20.3082C92.036 21.0775 91.4206 21.6758 90.0017 21.6758C88.4802 21.6929 87.0442 20.9578 86.1552 19.7269L84.1893 21.7613C85.5056 23.4879 87.557 24.4623 89.7281 24.4111C93.1301 24.4111 95.0619 22.6844 95.0619 20.2398C95.0619 18.0687 93.7113 16.6669 90.9932 16.0343L88.8734 15.5386C88.0015 15.3334 87.557 14.9061 87.557 14.2735C87.557 13.641 88.275 13.0085 89.4033 13.0085C90.6684 13.0085 91.8651 13.641 92.566 14.7009L94.6003 12.564C93.3011 11.128 91.4548 10.3074 89.523 10.3074C86.651 10.3074 84.6166 11.8802 84.6166 14.3761C84.6166 16.5985 85.9843 18.0003 88.6853 18.6328L90.3949 18.9918ZM101.49 24.0692C102.208 24.0692 102.755 24.0692 103.165 24.0179V21.2484L102.156 21.2997C100.396 21.2997 99.9682 20.8039 99.9682 18.8551V13.4188H103.182V10.6322H99.9682V6.87126H96.9253V10.6322H94.8909V13.4188H96.9253V19.3337C96.874 22.8041 98.0194 24.0862 101.524 24.0862L101.49 24.0692ZM108.601 24.3598C110.003 24.4111 111.371 23.9324 112.448 23.0092V24.0179H115.491V15.3676C115.491 12.0511 113.251 10.2903 109.764 10.2903C107.61 10.1877 105.576 11.2648 104.43 13.094L106.584 15.0599C107.165 13.8461 108.413 13.0769 109.764 13.111C111.046 12.9572 112.226 13.8632 112.379 15.1625C112.379 15.2309 112.397 15.2822 112.397 15.3505V16.2908C111.525 16.0002 110.602 15.8463 109.678 15.8292C106.379 15.8292 104.071 17.402 104.071 20.3253C104.02 21.4707 104.498 22.5648 105.37 23.317C106.276 24.0691 107.439 24.4623 108.618 24.4282L108.601 24.3598ZM107.2 20.0518C107.2 18.9747 108.14 18.3764 109.593 18.3764C110.55 18.3935 111.49 18.5816 112.397 18.9235V20.462C111.542 21.2484 110.413 21.6587 109.251 21.6074C107.952 21.6245 107.234 20.9749 107.234 20.0688L107.2 20.0518ZM125.919 10.4613C125.714 10.4442 125.526 10.4442 125.321 10.4613C123.782 10.3587 122.278 10.957 121.252 12.1024V10.6151H118.209V24.0692H121.337V18.7867C121.337 15.0257 122.346 13.3846 125.474 13.3846C125.645 13.3675 125.799 13.3675 125.97 13.3846L125.919 10.4613ZM132.278 18.9918C133.526 19.3337 133.92 19.7269 133.92 20.3082C133.92 21.0775 133.321 21.6758 131.885 21.6758C130.364 21.6929 128.928 20.9578 128.039 19.7269L126.022 21.7613C127.355 23.505 129.441 24.4965 131.629 24.4111C135.031 24.4111 136.963 22.6844 136.963 20.2398C136.963 18.0687 135.595 16.6669 132.843 16.0343L130.723 15.5386C129.851 15.3334 129.406 14.9061 129.406 14.2735C129.406 13.641 130.124 13.0085 131.253 13.0085C132.518 13.0085 133.714 13.641 134.398 14.7009L136.433 12.564C135.133 11.128 133.287 10.3074 131.355 10.3074C128.466 10.3074 126.449 11.8802 126.449 14.3761C126.449 16.5985 127.817 18.0003 130.518 18.6328L132.278 18.9918Z" fill="#B5B5B5"/>
<path d="M6.35353 26.1038H0.199219V8.75202C0.199219 4.46109 3.68666 0.956548 7.99469 0.939453H21.3974V7.14505H7.99469C7.10573 7.16215 6.38772 7.86306 6.37063 8.76911L6.35353 26.1038Z" fill="#B5B5B5"/>
<path d="M7.51562 14.3255C9.19097 14.7699 10.6954 15.6418 11.9091 16.8727C13.14 18.0864 14.0289 19.5908 14.4563 21.2662C15.3795 17.8813 18.0122 15.2486 21.397 14.3255C19.7217 13.8981 18.2173 13.0091 17.0035 11.7783C15.7727 10.5645 14.9008 9.06011 14.4563 7.38477C14.0118 9.06011 13.14 10.5645 11.9091 11.7783C10.6954 12.992 9.17387 13.8639 7.51562 14.3255Z" fill="#B5B5B5"/>
</g>
<defs>
<clipPath id="clip0_215_161">
<rect width="136.745" height="25.1643" fill="white" transform="translate(0.199219 0.939453)"/>
</clipPath>
</defs>
</svg>
