<svg width="138" height="26" viewBox="0 0 138 26" fill="none" xmlns="http://www.w3.org/2000/svg">
<g clip-path="url(#clip0_215_129)">
<path d="M9.61284 13.7845L3.45459 0.939453L0.398438 7.18963L6.4418 19.8508H12.5081L9.61284 13.7845Z" fill="#B5B5B5"/>
<path d="M27.9502 0.939453L25.0089 7.09771L21.8609 13.6466L18.8047 7.25856L18.8277 7.2126H12.7613L12.7384 7.25856L9.61328 13.7845L12.5086 19.8508H12.7843L15.7715 13.5777L18.7817 19.8508H24.8251H24.963L28.0191 13.4398L31.0063 7.18963L27.9502 0.939453Z" fill="#B5B5B5"/>
<path d="M39.508 14.5889C38.8646 14.5889 38.3131 14.7038 37.8306 14.9335C37.348 15.1403 36.9344 15.531 36.5667 16.0825H36.3829C36.4748 14.8876 36.5438 13.8076 36.5438 12.8655V10.7744H32.8672V25.4118H36.5438V20.7701C36.5438 19.5982 36.6816 18.748 36.9574 18.2425C37.2561 17.7369 37.6927 17.4842 38.2901 17.4842C39.1403 17.4842 39.5539 18.1965 39.5539 19.6212V25.4347H43.2535V18.5182C43.2535 17.2774 42.9318 16.3123 42.2424 15.6229C41.622 14.9335 40.7029 14.5889 39.508 14.5889Z" fill="#B5B5B5"/>
<path d="M51.0667 19.4605C51.0667 20.6325 50.9288 21.4827 50.6531 21.9882C50.3773 22.4937 49.9408 22.7465 49.2974 22.7465C48.8378 22.7465 48.5161 22.5627 48.3093 22.218C48.1254 21.8503 48.0106 21.3218 48.0106 20.6325V14.7959H44.334V21.7354C44.334 22.9992 44.6557 23.9414 45.3221 24.6307C45.9884 25.2971 46.8846 25.6418 48.0565 25.6418C48.7918 25.6418 49.4352 25.5039 49.9867 25.2512C50.5382 24.9754 50.9748 24.6077 51.2735 24.1252H51.4803L51.9399 25.458H54.7203V14.7959H51.0437V19.4605H51.0667Z" fill="#B5B5B5"/>
<path d="M62.0265 13.6462C62.0265 14.4734 62.0954 15.3237 62.2103 16.1509H62.1414C61.7737 15.5994 61.3601 15.1858 60.9005 14.956C60.4639 14.7032 59.9354 14.5883 59.338 14.5883C58.1201 14.5883 57.155 15.0709 56.4657 16.059C55.7763 17.047 55.4316 18.3798 55.4316 20.1262C55.4316 21.2521 55.5925 22.2172 55.8912 23.0674C56.1899 23.9176 56.6495 24.561 57.224 24.9747C57.7755 25.4112 58.4418 25.641 59.2001 25.641C60.4639 25.641 61.4061 25.1125 62.0265 24.1015H62.1644L62.9456 25.4572H65.726V10.7969H62.0265V13.6462ZM62.3252 20.4479C62.3022 21.2291 62.1644 21.8036 61.9346 22.1713C61.6818 22.5389 61.2682 22.7228 60.6708 22.7228C60.1652 22.7228 59.7746 22.5159 59.5218 22.0564C59.2461 21.6428 59.1082 20.9994 59.1082 20.1721C59.1082 19.3219 59.2461 18.6785 59.5218 18.219C59.7746 17.7824 60.1652 17.5526 60.6478 17.5526C61.2222 17.5526 61.6588 17.7364 61.9116 18.15C62.1873 18.5407 62.3252 19.207 62.3252 20.1492V20.4479Z" fill="#B5B5B5"/>
<path d="M74.022 19.6901C73.6544 19.3913 73.1029 19.0926 72.3446 18.7939C71.3335 18.3803 70.7361 18.1275 70.5293 18.0126C70.3225 17.8747 70.2076 17.7139 70.2076 17.553C70.2076 17.2543 70.5063 17.1165 71.1038 17.1165C71.4484 17.1165 71.885 17.1854 72.4365 17.3462C72.988 17.5071 73.5165 17.6909 73.999 17.8977L75.0101 15.5309C74.3437 15.2322 73.7003 15.0024 73.0799 14.8646C72.4595 14.7267 71.8161 14.6348 71.1038 14.6348C69.725 14.6348 68.6221 14.9105 67.8638 15.462C67.0825 16.0135 66.7148 16.7948 66.7148 17.7828C66.7148 18.5641 66.8987 19.2075 67.2893 19.736C67.7029 20.2415 68.3693 20.7011 69.3574 21.1147C70.4144 21.5283 71.0808 21.8271 71.3106 21.9879C71.5174 22.1258 71.6323 22.2866 71.6323 22.4934C71.6323 22.8611 71.2186 23.0219 70.4374 23.0219C69.9089 23.0219 69.3114 22.953 68.5991 22.7692C67.9327 22.6083 67.3123 22.4015 66.7378 22.1488V25.09C67.3582 25.3198 67.9557 25.4807 68.5301 25.5496C69.1046 25.6415 69.794 25.6875 70.5982 25.6875C72.0459 25.6875 73.1718 25.3887 73.9531 24.7913C74.7344 24.2168 75.102 23.3436 75.102 22.2177C75.102 21.6432 75.0331 21.1607 74.8493 20.77C74.6654 20.3105 74.3897 19.9658 74.022 19.6901Z" fill="#B5B5B5"/>
<path d="M83.3961 15.2777C82.5919 14.8411 81.6727 14.6113 80.6157 14.6113C78.9153 14.6113 77.6055 15.0939 76.6634 16.059C75.7213 17.0241 75.2617 18.3798 75.2617 20.1032C75.2617 21.8036 75.7443 23.1594 76.6864 24.1474C77.6515 25.1585 78.9383 25.641 80.5698 25.641C82.2472 25.641 83.58 25.1355 84.4991 24.1704C85.4412 23.1823 85.9008 21.8496 85.9008 20.0802C85.9008 18.9773 85.694 17.9892 85.2344 17.1619C84.8208 16.3577 84.2004 15.7143 83.3961 15.2777ZM81.8106 22.1943C81.5578 22.6768 81.1442 22.9066 80.5928 22.9066C80.0183 22.9066 79.6047 22.6768 79.3519 22.1943C79.0991 21.7117 78.9843 21.0224 78.9843 20.1032C78.9843 19.207 79.0991 18.4947 79.3519 18.0351C79.6047 17.5756 80.0183 17.3458 80.5698 17.3458C81.1442 17.3458 81.5579 17.5756 81.7876 18.0351C82.0404 18.4947 82.1553 19.1841 82.1553 20.1032C82.1553 21.0224 82.0404 21.7117 81.8106 22.1943Z" fill="#B5B5B5"/>
<path d="M93.2556 14.5889C92.5432 14.5889 91.8998 14.7267 91.3484 14.9795C90.7969 15.2323 90.3373 15.5999 90.0386 16.1055H89.8318L89.3722 14.7957H86.5918V25.4577H90.2684V20.7701C90.2684 19.5522 90.4062 18.702 90.682 18.1965C90.9807 17.714 91.4173 17.4612 92.0377 17.4612C92.4973 17.4612 92.819 17.645 93.0258 17.9897C93.2326 18.3574 93.3245 18.8859 93.3245 19.5982V25.4118H97.0011V18.5182C97.0011 17.2774 96.6794 16.3123 96.013 15.6229C95.3696 14.9335 94.4275 14.5889 93.2556 14.5889Z" fill="#B5B5B5"/>
<path d="M110.581 14.7954L109.639 18.8626C109.547 19.2992 109.432 19.8737 109.34 20.586C109.248 21.2984 109.179 21.8958 109.156 22.3784H109.087C109.018 21.5971 108.834 20.5171 108.559 19.1384L107.663 14.7725H103.595L102.607 19.0924C102.286 20.7009 102.102 21.8039 102.079 22.3784H102.01C101.964 21.4592 101.803 20.2873 101.527 18.8626L100.654 14.7725H97.0234L99.9417 25.4345H103.825L104.905 20.9077C104.997 20.4482 105.204 19.3452 105.526 17.5988H105.594L105.778 18.8397L106.054 20.3563L107.272 25.4345H111.201L114.119 14.7725H110.581V14.7954Z" fill="#B5B5B5"/>
<path d="M119.014 14.5889C117.314 14.5889 116.027 15.0714 115.131 16.0365C114.235 17.0016 113.752 18.3803 113.752 20.1727C113.752 21.919 114.235 23.2518 115.223 24.1939C116.211 25.136 117.589 25.6186 119.359 25.6186C120.209 25.6186 120.944 25.5496 121.565 25.4348C122.185 25.3199 122.783 25.136 123.357 24.8143V22.2178C122.714 22.5165 122.139 22.7233 121.588 22.8612C121.059 22.976 120.462 23.045 119.818 23.045C119.106 23.045 118.554 22.8612 118.141 22.5395C117.727 22.1948 117.497 21.7352 117.474 21.1378H124.046V19.5063C124.046 17.9208 123.61 16.7259 122.737 15.8757C121.886 15.0255 120.623 14.5889 119.014 14.5889ZM117.566 18.7939C117.612 18.2195 117.773 17.7829 118.072 17.5071C118.371 17.2314 118.738 17.0935 119.175 17.0935C119.634 17.0935 120.025 17.2544 120.301 17.5531C120.6 17.8518 120.714 18.2654 120.737 18.7939H117.566Z" fill="#B5B5B5"/>
<path d="M128.434 14.7959H124.758V25.458H128.434V14.7959Z" fill="#B5B5B5"/>
<path d="M128.091 10.9126C127.77 10.6139 127.287 10.499 126.598 10.499C125.931 10.499 125.426 10.6369 125.104 10.9126C124.805 11.1884 124.645 11.579 124.645 12.1535C124.645 13.2335 125.311 13.762 126.598 13.762C127.907 13.762 128.574 13.2335 128.574 12.1535C128.574 11.579 128.413 11.1884 128.091 10.9126Z" fill="#B5B5B5"/>
<path d="M136.938 14.6803C136.639 14.6113 136.363 14.6113 136.041 14.6113C135.49 14.6113 134.915 14.7952 134.387 15.1398C133.835 15.4845 133.399 15.9441 133.1 16.5186H132.916L132.342 14.8181H129.607V25.4802H133.284V20.1951C133.284 19.5058 133.468 18.9773 133.812 18.6096C134.18 18.2419 134.755 18.0581 135.559 18.0581C136.087 18.0581 136.501 18.1041 136.823 18.173L137.144 14.7032L136.938 14.6803Z" fill="#B5B5B5"/>
</g>
<defs>
<clipPath id="clip0_215_129">
<rect width="136.745" height="24.702" fill="white" transform="translate(0.398438 0.939453)"/>
</clipPath>
</defs>
</svg>
