<svg width="137" height="27" viewBox="0 0 137 27" fill="none" xmlns="http://www.w3.org/2000/svg">
<g clip-path="url(#clip0_215_156)">
<path d="M37.2485 4.83691C33.6584 4.83691 31.8463 6.52935 31.8463 9.91422V10.598H29.8633V13.4017H31.8463V24.0692H34.8893V13.4188H38.1374V10.6322H34.9064V10.4613C34.9064 8.51241 35.7783 7.70893 37.7271 7.70893C37.9152 7.70893 38.1716 7.70893 38.4451 7.70893V4.8711L37.2485 4.83691ZM45.3858 10.2903C41.5736 10.2561 38.4622 13.3162 38.4451 17.1284C38.4451 17.1797 38.4451 17.2481 38.4451 17.2994C38.3768 19.197 39.0948 21.0433 40.4282 22.3767C43.1805 25.0265 47.5398 25.0265 50.2922 22.3767C51.6256 21.0604 52.3607 19.2312 52.3265 17.3507C52.3778 15.4702 51.6427 13.6581 50.2922 12.3247C48.9929 11.0083 47.2321 10.2732 45.3858 10.2903ZM45.3858 21.539C43.1976 21.539 41.6249 19.7953 41.6249 17.3336C41.6249 14.8719 43.1976 13.1281 45.3858 13.1281C46.4116 13.094 47.386 13.5213 48.0527 14.3077C48.7707 15.1625 49.1297 16.2566 49.0613 17.3507C49.1297 18.4619 48.7707 19.556 48.0527 20.3937C47.3689 21.18 46.3945 21.5903 45.3858 21.539ZM60.6349 10.2903C56.8226 10.239 53.6942 13.2649 53.6429 17.0772C53.6429 17.1455 53.6429 17.231 53.6429 17.2994C53.5745 19.197 54.3096 21.0433 55.6772 22.3767C58.4296 25.0265 62.7889 25.0265 65.5412 22.3767C66.8747 21.0604 67.6098 19.2312 67.5756 17.3507C67.6269 15.4702 66.8917 13.6581 65.5412 12.3247C64.2591 10.9912 62.4812 10.239 60.6178 10.2732H60.6349V10.2903ZM60.6349 21.539C58.4467 21.539 56.8739 19.7953 56.8739 17.3336C56.8739 14.8719 58.4467 13.1281 60.6349 13.1281C61.6606 13.094 62.635 13.5213 63.3017 14.3077C64.0368 15.1454 64.43 16.2395 64.3787 17.3507C64.43 18.4619 64.0368 19.556 63.3017 20.3937C62.6179 21.1629 61.6435 21.5732 60.6178 21.5049L60.6349 21.539ZM75.4565 10.2903C73.6615 10.239 71.9349 10.9741 70.7211 12.3247C69.4902 13.6923 68.8235 15.4702 68.8748 17.2994C68.8064 19.1628 69.4561 20.992 70.7211 22.3767C71.9349 23.7101 73.6615 24.4623 75.4565 24.4111C76.8925 24.4794 78.2772 23.9324 79.2688 22.9067V24.1204H82.3288V4.83691H79.2346V11.6238C78.1747 10.7177 76.8412 10.2561 75.4565 10.2903ZM75.6787 13.0598C77.9866 13.0598 79.2859 14.9232 79.2859 17.3336C79.2859 19.744 78.0379 21.6074 75.6787 21.6074C73.3196 21.6074 72.0887 19.744 72.0887 17.2823C72.0887 14.8377 73.4051 13.0598 75.6787 13.0598ZM90.2952 18.9918C91.5261 19.3337 91.9364 19.7269 91.9364 20.3082C91.9364 21.0775 91.321 21.6758 89.9021 21.6758C88.3806 21.6929 86.9446 20.9578 86.0556 19.7269L84.0896 21.7613C85.406 23.4879 87.4574 24.4623 89.6285 24.4111C93.0305 24.4111 94.9623 22.6844 94.9623 20.2398C94.9623 18.0687 93.6117 16.6669 90.8936 16.0343L88.7738 15.5386C87.9019 15.3334 87.4574 14.9061 87.4574 14.2735C87.4574 13.641 88.1754 13.0085 89.3037 13.0085C90.5688 13.0085 91.7654 13.641 92.4664 14.7009L94.5007 12.564C93.2015 11.128 91.3552 10.3074 89.4234 10.3074C86.5514 10.3074 84.517 11.8802 84.517 14.3761C84.517 16.5985 85.8846 18.0003 88.5857 18.6328L90.2952 18.9918ZM101.39 24.0692C102.108 24.0692 102.655 24.0692 103.065 24.0179V21.2484L102.057 21.2997C100.296 21.2997 99.8686 20.8039 99.8686 18.8551V13.4188H103.083V10.6322H99.8686V6.87126H96.8257V10.6322H94.7913V13.4188H96.8257V19.3337C96.7744 22.8041 97.9198 24.0862 101.424 24.0862L101.39 24.0692ZM108.502 24.3598C109.904 24.4111 111.271 23.9324 112.348 23.0092V24.0179H115.391V15.3676C115.391 12.0511 113.152 10.2903 109.664 10.2903C107.51 10.1877 105.476 11.2648 104.331 13.094L106.485 15.0599C107.066 13.8461 108.314 13.0769 109.664 13.111C110.946 12.9572 112.126 13.8632 112.28 15.1625C112.28 15.2309 112.297 15.2822 112.297 15.3505V16.2908C111.425 16.0002 110.502 15.8463 109.579 15.8292C106.279 15.8292 103.972 17.402 103.972 20.3253C103.92 21.4707 104.399 22.5648 105.271 23.317C106.177 24.0691 107.339 24.4623 108.519 24.4282L108.502 24.3598ZM107.1 20.0518C107.1 18.9747 108.04 18.3764 109.493 18.3764C110.451 18.3935 111.391 18.5816 112.297 18.9235V20.462C111.442 21.2484 110.314 21.6587 109.151 21.6074C107.852 21.6245 107.134 20.9749 107.134 20.0688L107.1 20.0518ZM125.819 10.4613C125.614 10.4442 125.426 10.4442 125.221 10.4613C123.682 10.3587 122.178 10.957 121.152 12.1024V10.6151H118.109V24.0692H121.238V18.7867C121.238 15.0257 122.246 13.3846 125.375 13.3846C125.546 13.3675 125.7 13.3675 125.871 13.3846L125.819 10.4613ZM132.179 18.9918C133.427 19.3337 133.82 19.7269 133.82 20.3082C133.82 21.0775 133.222 21.6758 131.786 21.6758C130.264 21.6929 128.828 20.9578 127.939 19.7269L125.922 21.7613C127.255 23.505 129.341 24.4965 131.529 24.4111C134.931 24.4111 136.863 22.6844 136.863 20.2398C136.863 18.0687 135.495 16.6669 132.743 16.0343L130.623 15.5386C129.751 15.3334 129.307 14.9061 129.307 14.2735C129.307 13.641 130.025 13.0085 131.153 13.0085C132.418 13.0085 133.615 13.641 134.299 14.7009L136.333 12.564C135.034 11.128 133.187 10.3074 131.256 10.3074C128.367 10.3074 126.349 11.8802 126.349 14.3761C126.349 16.5985 127.717 18.0003 130.418 18.6328L132.179 18.9918Z" fill="#B5B5B5"/>
<path d="M6.25393 26.1038H0.0996094V8.75202C0.0996094 4.46109 3.58705 0.956548 7.89508 0.939453H21.2978V7.14505H7.89508C7.00612 7.16215 6.28812 7.86306 6.27102 8.76911L6.25393 26.1038Z" fill="#B5B5B5"/>
<path d="M7.41602 14.3255C9.09136 14.7699 10.5957 15.6418 11.8095 16.8727C13.0404 18.0864 13.9293 19.5908 14.3567 21.2662C15.2799 17.8813 17.9125 15.2486 21.2974 14.3255C19.6221 13.8981 18.1177 13.0091 16.9039 11.7783C15.6731 10.5645 14.8012 9.06011 14.3567 7.38477C13.9122 9.06011 13.0404 10.5645 11.8095 11.7783C10.5957 12.992 9.07426 13.8639 7.41602 14.3255Z" fill="#B5B5B5"/>
</g>
<defs>
<clipPath id="clip0_215_156">
<rect width="136.745" height="25.1643" fill="white" transform="translate(0.0996094 0.939453)"/>
</clipPath>
</defs>
</svg>
