<svg width="138" height="48" viewBox="0 0 138 48" fill="none" xmlns="http://www.w3.org/2000/svg">
<g clip-path="url(#clip0_215_166)">
<path d="M128.458 3.13604C128.561 2.2107 127.842 1.43958 126.968 1.33676C126.916 1.33676 126.865 1.33676 126.762 1.33676H113.19C111.905 1.28535 110.825 2.36492 110.774 3.65012V3.70153V24.9331C110.774 26.2183 111.802 27.2978 113.087 27.2978H113.139H126.711C127.636 27.2978 128.356 26.5781 128.356 25.6528C128.356 25.6014 128.356 25.55 128.356 25.4986C128.407 24.5732 127.636 23.8021 126.711 23.7507H126.659H114.116V4.88391H126.711C127.739 4.88391 128.458 4.1128 128.458 3.13604C128.458 3.18745 128.458 3.13604 128.458 3.13604ZM106.764 8.43107C106.764 4.62687 103.32 1.33676 99.053 1.33676H90.108C88.7714 1.38817 87.7432 2.46774 87.7432 3.75294V25.4471C87.6918 26.4239 88.4116 27.2464 89.3883 27.2978C89.4397 27.2978 89.4397 27.2978 89.4911 27.2978C90.4165 27.2978 91.1876 26.4753 91.1361 25.55C91.1361 25.4985 91.1361 25.4985 91.1361 25.4471V4.8325H99.053C101.469 4.8325 103.423 6.42616 103.423 8.37966C103.423 10.3332 101.469 12.0296 99.053 12.0296H95.2488C94.1178 12.0296 93.3467 12.7493 93.3467 13.7261C93.3467 14.7029 94.1692 15.5254 95.1974 15.5254H96.6882L103.423 26.3725C103.731 26.8866 104.245 27.2464 104.811 27.2464C105.787 27.195 106.559 26.3725 106.559 25.3957C106.507 25.0359 106.404 24.676 106.25 24.3676C104.194 21.026 102.24 18.1986 100.544 15.3198C104.091 14.7543 106.764 11.9268 106.764 8.43107ZM83.5792 19.638V3.08463C83.5278 2.15929 82.808 1.38817 81.8827 1.33676C80.9059 1.33676 80.2377 2.10788 80.2377 3.18745V19.638C80.2377 22.1056 78.6954 23.8535 76.0222 23.8535H71.2412C68.8251 23.8535 66.6659 22.3627 66.6659 19.638V3.08463C66.7173 2.15929 66.049 1.38817 65.1237 1.33676C64.1983 1.28535 63.4272 1.95366 63.3758 2.879C63.3758 2.93041 63.3758 3.03322 63.3758 3.08463V19.5866C63.3758 24.6246 67.0258 27.2464 71.2926 27.2464H75.9708C80.6489 27.2978 83.5792 24.1619 83.5792 19.638ZM44.6633 18.6099V10.2304C44.6633 6.37474 47.0795 4.8325 51.1407 4.8325H57.9265C58.8519 4.8325 59.5716 4.06139 59.5716 3.13604C59.5716 2.2107 58.8519 1.43957 57.9265 1.38816H51.1407C45.0746 1.38816 41.2703 3.90716 41.2703 10.2818V18.6613C41.2703 23.8021 44.8689 27.3492 51.1407 27.3492H57.9265C58.8519 27.2978 59.5716 26.5267 59.5716 25.6014C59.6231 24.676 58.9033 23.9563 58.0294 23.9049C57.978 23.9049 57.8752 23.9049 57.8238 23.9049H51.1407C46.9252 23.8021 44.6633 21.5915 44.6633 18.6099ZM17.1086 13.6747C18.548 12.3381 19.3705 10.5388 19.4219 8.58529C19.4219 4.72969 15.8233 1.33676 11.6079 1.33676H2.66287C1.32626 1.38817 0.298095 2.46774 0.349503 3.75294V24.8302C0.349503 26.1669 1.37766 27.2464 2.66287 27.2464H12.2248C16.9029 27.2464 20.5529 23.6993 20.5529 19.638C20.5015 17.2218 19.0621 15.0113 17.1086 13.6747ZM17.1086 19.6894C17.1086 22.0028 14.898 23.8021 12.2248 23.8021H3.69103V4.7811H11.6079C14.0241 4.7811 15.9776 6.52897 15.9776 8.58529C15.9776 10.4874 14.1269 12.081 11.8135 12.1839H7.80367C6.7241 12.1839 5.953 12.8522 5.953 13.8289C5.953 14.8057 6.77552 15.5768 7.75228 15.5768H12.2248C14.898 15.5768 17.1086 17.4275 17.1086 19.6894Z" fill="#B5B5B5"/>
<path d="M123.473 40.7672C124.604 40.7672 125.478 39.9961 125.478 39.0707C125.478 38.1454 124.552 37.4257 123.473 37.4257H119.823V40.7672H123.473ZM122.342 42.3609H119.771V46.9362C119.823 47.3474 119.463 47.7587 119.052 47.8101H119C118.538 47.8101 118.178 47.4503 118.178 46.9876V46.9362V36.9116C118.178 36.2947 118.64 35.7806 119.257 35.7806H123.421C125.323 35.7292 126.917 37.1686 126.969 39.0707C126.917 40.7158 125.683 42.0524 124.09 42.258C124.861 43.5947 125.735 44.9313 126.711 46.4221C126.763 46.5763 126.814 46.7305 126.866 46.8848C126.866 47.3474 126.506 47.7073 126.043 47.7587C125.786 47.7587 125.529 47.6045 125.375 47.3474L122.342 42.3609Z" fill="#B5B5B5"/>
<path d="M99.8242 36.9116C99.8242 36.2947 100.287 35.832 100.904 35.832C100.904 35.832 100.904 35.832 100.955 35.832H107.227C107.69 35.832 108.05 36.2433 107.998 36.706C107.998 37.1172 107.638 37.4771 107.227 37.4771H101.418V40.8186H106.147C106.61 40.8186 106.919 41.1785 106.919 41.6411C106.919 42.0524 106.61 42.4123 106.147 42.4123H101.366V46.1651H107.176C107.587 46.1651 107.947 46.5249 107.947 46.9362C107.947 46.9362 107.947 46.9362 107.947 46.9876C107.998 47.3988 107.69 47.7587 107.278 47.8101H107.227H100.955C100.338 47.8101 99.8756 47.3474 99.8242 46.7305C99.8242 46.7305 99.8242 46.7305 99.8242 46.6791V36.9116Z" fill="#B5B5B5"/>
<path d="M81.7288 46.1651H85.2759C86.9724 46.1651 87.8977 45.5482 87.8977 44.0573C87.8977 42.9778 86.921 42.7207 85.1731 42.4123C83.0654 42.0524 80.9062 41.5383 80.9062 39.0707C80.9062 36.706 82.6027 35.832 85.2759 35.832H88.3604C88.8231 35.832 89.1829 36.1919 89.1829 36.6546C89.1829 36.6546 89.1829 36.6546 89.1829 36.706C89.1829 37.1172 88.8231 37.4771 88.4118 37.5285H85.3273C83.6309 37.5285 82.5513 37.9398 82.5513 39.1222C82.5513 40.3559 83.7851 40.613 85.533 40.9214C88.0006 41.3327 89.5428 41.9496 89.5428 44.1601C89.5428 46.7819 88.0006 47.9129 85.3273 47.9129H81.7802C81.3689 47.8615 81.009 47.5017 81.009 47.0904C81.009 46.5249 81.3175 46.2165 81.7288 46.1651Z" fill="#B5B5B5"/>
<path d="M67.6944 42.7723C67.1289 41.0758 66.4092 39.3794 65.7409 37.5287C65.6895 37.4773 65.6381 37.4258 65.5353 37.4258C65.4325 37.4258 65.3811 37.4773 65.3296 37.5287L63.4276 42.7723H67.6944ZM62.862 44.3145C62.2451 46.011 62.0395 46.5765 61.7311 47.2962C61.6283 47.6046 61.3712 47.8103 61.0114 47.8103C60.6001 47.7589 60.2402 47.399 60.2402 46.9877C60.2402 46.8849 60.2403 46.7821 60.3431 46.6793C61.5255 43.4406 62.7078 40.2019 63.8388 37.0146C64.1472 36.0892 65.1754 35.6266 66.1008 35.935C66.6148 36.0892 66.9747 36.5005 67.1803 37.0146L70.7275 46.6793C70.7789 46.7821 70.7789 46.8849 70.7789 46.9877C70.7789 47.399 70.419 47.7589 70.0078 47.8103C69.6993 47.7589 69.3909 47.5532 69.288 47.2962L68.2085 44.3145H62.862Z" fill="#B5B5B5"/>
<path d="M42.8633 36.6546C42.8633 36.1919 43.2231 35.832 43.6858 35.832C44.0971 35.832 44.4569 36.1919 44.4569 36.6032V36.6546V46.1651H49.7005C50.1118 46.1651 50.523 46.4735 50.523 46.9362V46.9876C50.5744 47.3988 50.266 47.7587 49.8034 47.8101C49.752 47.8101 49.7519 47.8101 49.7005 47.8101H43.9942C43.3773 47.8101 42.8633 47.3474 42.8633 46.7305V36.6546Z" fill="#B5B5B5"/>
<path d="M137.044 2.7251C137.044 2.26242 136.941 1.74834 136.684 1.33708C136.427 0.925815 136.119 0.565959 135.656 0.308919C134.833 -0.153754 133.805 -0.153754 132.983 0.308919C132.571 0.565959 132.211 0.874407 131.954 1.33708C131.492 2.21102 131.44 3.23917 131.954 4.0617C132.211 4.47297 132.52 4.83282 132.983 5.08986C133.805 5.55254 134.885 5.55254 135.707 5.08986C136.119 4.83282 136.478 4.52437 136.735 4.0617C136.941 3.70185 137.044 3.23918 137.044 2.7251ZM136.581 2.7251C136.581 3.13636 136.478 3.49622 136.273 3.85607C136.067 4.21593 135.759 4.52438 135.45 4.67861C134.73 5.08987 133.857 5.08987 133.188 4.67861C132.828 4.47297 132.52 4.16452 132.366 3.85607C131.954 3.13636 131.954 2.26243 132.366 1.59412C132.571 1.23426 132.88 0.925812 133.24 0.771588C133.959 0.360323 134.782 0.360323 135.502 0.771588C135.861 0.97722 136.17 1.23426 136.376 1.59412C136.478 1.95398 136.581 2.36524 136.581 2.7251ZM134.988 4.26734H135.553L135.193 3.70185C135.09 3.49621 134.936 3.29059 134.782 3.13636C134.73 3.08495 134.628 3.03355 134.525 2.98214C134.73 2.98214 134.988 2.87932 135.142 2.7251C135.296 2.57087 135.399 2.36524 135.347 2.1596C135.347 2.00538 135.296 1.85115 135.193 1.74834C135.09 1.59411 134.987 1.4913 134.833 1.43989C134.576 1.38849 134.319 1.33708 134.062 1.33708H133.034V4.26734H133.497V3.03354H133.754C133.908 3.03354 134.011 3.08495 134.114 3.13636C134.319 3.342 134.473 3.54762 134.628 3.80466L134.988 4.26734ZM134.165 2.62228H133.6V1.74834H134.165C134.319 1.74834 134.473 1.74834 134.628 1.79975C134.731 1.85116 134.782 1.90257 134.833 1.95398C134.885 2.00538 134.885 2.1082 134.885 2.21102C134.885 2.31383 134.833 2.46805 134.73 2.51946C134.525 2.57087 134.371 2.62228 134.165 2.62228Z" fill="#B5B5B5"/>
<path d="M126.403 13.8296C126.403 12.9043 125.735 12.1846 124.604 12.1846H118.435C117.355 12.1846 116.584 12.8529 116.584 13.8296C116.584 14.8064 117.407 15.5775 118.383 15.5775H124.706C125.58 15.5775 126.352 14.8064 126.403 13.8296Z" fill="#B5B5B5"/>
<path d="M35.4618 13.8296C35.4618 12.9043 34.7935 12.1846 33.6625 12.1846H26.6711C25.5915 12.1846 24.8203 12.8529 24.8203 13.8296C24.8203 14.8064 25.6428 15.5775 26.6196 15.5775H33.7653C34.6907 15.5775 35.4618 14.8064 35.4618 13.8296Z" fill="#B5B5B5"/>
</g>
<defs>
<clipPath id="clip0_215_166">
<rect width="136.745" height="47.8095" fill="white" transform="translate(0.298828)"/>
</clipPath>
</defs>
</svg>
