<svg width="137" height="29" viewBox="0 0 137 29" fill="none" xmlns="http://www.w3.org/2000/svg">
<g clip-path="url(#clip0_215_144)">
<path fill-rule="evenodd" clip-rule="evenodd" d="M61.9751 8.33107C61.6908 7.1939 61.2643 5.91457 58.5636 5.91457C55.8628 5.91457 55.4363 6.9096 55.4363 7.76249C55.4363 10.7476 67.5188 8.61537 67.5188 15.5806C67.5188 21.1243 62.1172 22.1193 59.1321 22.1193C54.7256 22.1193 50.0347 20.6979 49.8926 15.5806H55.152C55.152 17.1442 56.1471 18.2814 59.2743 18.2814C61.8329 18.2814 62.5437 17.002 62.5437 16.2913C62.5437 13.1641 50.6033 15.5806 50.6033 8.47322C50.6033 5.77243 52.3091 2.21875 58.4214 2.21875C62.1172 2.21875 66.6659 3.07163 67.0924 8.47322L61.9751 8.33107Z" fill="#B5B5B5"/>
<path fill-rule="evenodd" clip-rule="evenodd" d="M95.8074 21.4082H90.6901V10.0364C90.6901 7.19347 89.4108 6.34058 87.9893 6.34058C85.4307 6.34058 84.5778 7.9042 84.5778 10.1786V21.4082H79.6027V10.0364C79.6027 8.47279 79.6027 6.19844 76.6176 6.19844C74.2011 6.19844 73.4903 7.76205 73.4903 9.89426V21.4082H68.373V2.64476H73.206V5.34555H73.3482C73.9168 4.20838 75.3383 2.07617 78.7498 2.07617C81.5927 2.07617 82.7299 3.0712 84.1514 5.06126C84.8621 4.20838 86.1414 2.07617 89.2687 2.07617C92.9645 2.07617 95.9496 4.20838 95.9496 8.33064L95.8074 21.4082Z" fill="#B5B5B5"/>
<path fill-rule="evenodd" clip-rule="evenodd" d="M115.565 16.007C114.286 20.5557 110.448 21.9772 107.178 21.9772C101.777 21.9772 97.6543 19.4185 97.6543 11.7426C97.6543 9.46825 98.5072 2.21875 106.894 2.21875C110.732 2.21875 115.991 3.92451 115.991 12.5955V13.4484H102.772C102.914 14.8698 103.198 17.9971 107.32 17.9971C108.742 17.9971 110.163 17.2863 110.59 16.007H115.565ZM110.59 10.179C110.305 7.1939 108.315 6.19887 106.752 6.19887C104.335 6.19887 103.056 7.62034 102.772 10.179H110.59Z" fill="#B5B5B5"/>
<path fill-rule="evenodd" clip-rule="evenodd" d="M136.176 2.07629V19.2761C136.176 22.4033 135.892 27.6628 126.51 27.6628C122.53 27.6628 118.408 26.0991 118.124 22.2612H123.667C123.952 23.1141 124.236 24.1091 127.221 24.1091C129.922 24.1091 131.201 22.8298 131.201 19.9868V17.8546H131.059C130.206 19.2761 128.927 20.5554 125.942 20.5554C121.251 20.5554 117.697 17.5703 117.697 11.1737C117.697 4.91923 121.393 1.79199 125.657 1.79199C129.211 1.79199 130.633 3.78205 131.343 4.91923H131.486V2.07629H136.176ZM126.795 16.1488C130.206 16.1488 131.059 13.4481 131.059 10.8894C131.059 7.90432 129.495 5.62996 126.795 5.62996C124.947 5.62996 122.815 6.90929 122.815 11.1737C122.815 13.4481 123.81 16.1488 126.795 16.1488Z" fill="#B5B5B5"/>
<path fill-rule="evenodd" clip-rule="evenodd" d="M12.9348 21.4088C12.9348 24.8203 10.234 27.5211 6.82251 27.5211C3.41098 27.5211 0.710188 24.8203 0.710188 21.4088C0.568041 17.9972 3.41098 15.1543 6.82251 15.1543C10.0919 15.1543 12.9348 17.9972 12.9348 21.4088Z" fill="#B5B5B5"/>
<path fill-rule="evenodd" clip-rule="evenodd" d="M25.1602 21.4088C25.1602 24.8203 22.4594 27.5211 19.0479 27.5211C15.6363 27.5211 12.9355 24.8203 12.9355 21.4088C12.9355 17.9972 15.6363 15.1543 19.0479 15.1543C22.4594 15.1543 25.1602 17.9972 25.1602 21.4088Z" fill="#B5B5B5"/>
<path fill-rule="evenodd" clip-rule="evenodd" d="M37.5254 21.4084C37.5254 24.82 34.8246 27.5208 31.4131 27.5208C28.0016 27.5208 25.3008 24.82 25.3008 21.4084C25.3008 17.9969 28.0016 15.2961 31.4131 15.2961C34.8246 15.154 37.5254 17.9969 37.5254 21.4084Z" fill="#B5B5B5"/>
<path fill-rule="evenodd" clip-rule="evenodd" d="M25.1602 9.04103C25.1602 12.4526 22.4594 15.1534 19.0479 15.1534C15.6363 15.1534 12.9355 12.4526 12.9355 9.04103C12.9355 5.6295 15.6363 2.92871 19.0479 2.92871C22.4594 2.92871 25.1602 5.6295 25.1602 9.04103Z" fill="#B5B5B5"/>
<path fill-rule="evenodd" clip-rule="evenodd" d="M37.5254 9.04103C37.5254 12.4526 34.8246 15.1534 31.4131 15.1534C28.0016 15.1534 25.3008 12.4526 25.3008 9.04103C25.3008 5.6295 28.0016 2.92871 31.4131 2.92871C34.8246 2.92871 37.5254 5.6295 37.5254 9.04103Z" fill="#B5B5B5"/>
<path fill-rule="evenodd" clip-rule="evenodd" d="M49.8926 9.04103C49.8926 12.4526 47.1918 15.1534 43.7803 15.1534C40.3688 15.1534 37.668 12.4526 37.668 9.04103C37.668 5.6295 40.3688 2.92871 43.7803 2.92871C47.0497 2.92871 49.8926 5.6295 49.8926 9.04103Z" fill="#B5B5B5"/>
</g>
<defs>
<clipPath id="clip0_215_144">
<rect width="136.745" height="27.1501" fill="white" transform="translate(0 0.939453)"/>
</clipPath>
</defs>
</svg>
