<svg width="334" height="222" viewBox="0 0 334 222" fill="none" xmlns="http://www.w3.org/2000/svg">
<path d="M89.4323 58.1344C115.719 57.8132 132.791 54.8029 147.784 39.5698C171.476 15.4995 192.876 5.52414 224.89 6.01769C293.645 7.07926 333.619 59.7448 333.773 127.606C333.878 173.972 311.6 213.316 285.553 221.078C221.756 221.078 142.097 221.078 29.7066 221.078C29.7066 221.078 -0.460754 176.717 0.637939 138.258C2.07217 88.0504 36.761 58.779 89.4323 58.1344Z" fill="#95C7EC" fill-opacity="0.2"/>
<path d="M320.056 102.415L329.583 95.6421L321.654 104.229L323.703 112.928L333.475 92.2182L311.688 99.2766L320.056 102.415Z" fill="#2A67B2"/>
<path d="M291.791 83.7524L291.782 83.7348C291.558 83.2934 291.02 83.1213 290.58 83.3456C290.138 83.5698 289.964 84.1122 290.188 84.5536C290.346 84.8678 290.662 85.049 290.99 85.049C291.125 85.049 291.261 85.0184 291.391 84.9545C291.833 84.7335 292.013 84.195 291.792 83.7524H291.791Z" fill="#2A67B2"/>
<path d="M293.982 97.0601C294.475 97.0183 294.841 96.5848 294.799 96.092L294.798 96.0783C294.756 95.5854 294.321 95.2197 293.83 95.2608C293.336 95.3025 292.971 95.736 293.012 96.2289L293.014 96.2425C293.053 96.71 293.445 97.0633 293.905 97.0633C293.931 97.0633 293.956 97.062 293.982 97.0601Z" fill="#2A67B2"/>
<path d="M293.575 92.9321C294.063 92.8493 294.392 92.3871 294.309 91.8995L294.307 91.8838C294.223 91.3962 293.76 91.0748 293.273 91.1582C292.786 91.2417 292.459 91.7104 292.543 92.1987C292.616 92.6361 292.996 92.9452 293.425 92.9452C293.475 92.9452 293.525 92.9412 293.576 92.9328L293.575 92.9321Z" fill="#2A67B2"/>
<path d="M293.361 87.7435L292.501 87.9945L293.361 87.7415C293.221 87.2669 292.722 86.9951 292.248 87.1346C291.774 87.2741 291.502 87.7721 291.642 88.2467L291.653 88.2826C291.776 88.6627 292.13 88.9084 292.51 88.9084C292.601 88.9084 292.692 88.8948 292.782 88.8654C293.253 88.7129 293.513 88.2142 293.361 87.7428V87.7435Z" fill="#2A67B2"/>
<path d="M277.381 75.6979L277.452 76.5911L277.376 75.6986C276.883 75.741 276.518 76.1745 276.56 76.668C276.6 77.1348 276.992 77.4875 277.452 77.4875C277.477 77.4875 277.503 77.4862 277.529 77.4842L277.554 77.4823C278.045 77.4347 278.403 76.9985 278.357 76.507C278.31 76.0154 277.876 75.653 277.381 75.6986L277.381 75.6979Z" fill="#2A67B2"/>
<path d="M285.921 77.3297L285.477 78.1074L285.918 77.3271C285.487 77.0839 284.94 77.2358 284.696 77.6667C284.453 78.0977 284.605 78.644 285.036 78.8871L285.058 78.8995C285.194 78.9745 285.341 79.0097 285.486 79.0097C285.801 79.0097 286.107 78.8421 286.27 78.5462C286.509 78.1146 286.352 77.5696 285.921 77.329V77.3297Z" fill="#2A67B2"/>
<path d="M273.159 76.4835L273.139 76.4887C272.663 76.6217 272.388 77.1152 272.521 77.5917C272.631 77.9875 272.993 78.2456 273.386 78.2456C273.466 78.2456 273.547 78.2345 273.628 78.2124C274.106 78.0826 274.388 77.5904 274.258 77.1132C274.128 76.636 273.636 76.3537 273.159 76.4835Z" fill="#2A67B2"/>
<path d="M281.762 75.8596L281.737 75.855C281.25 75.7716 280.786 76.0989 280.703 76.5865C280.619 77.0741 280.947 77.5376 281.435 77.6211C281.49 77.6315 281.545 77.6361 281.599 77.6361C282.022 77.6361 282.399 77.3349 282.479 76.904C282.569 76.4176 282.248 75.9502 281.762 75.8596Z" fill="#2A67B2"/>
<path d="M289.343 80.1062C289.011 79.7399 288.446 79.7131 288.079 80.0443C287.714 80.3748 287.685 80.9394 288.013 81.3064C288.189 81.5092 288.438 81.6135 288.689 81.6135C288.894 81.6135 289.101 81.5431 289.27 81.3996C289.646 81.0789 289.691 80.5137 289.371 80.1369L289.343 80.1062Z" fill="#2A67B2"/>
<path d="M306.751 108.827H306.724C306.23 108.827 305.829 109.228 305.829 109.723C305.829 110.218 306.23 110.619 306.725 110.619C306.73 110.619 306.733 110.619 306.738 110.619C307.227 110.619 307.627 110.226 307.634 109.735C307.641 109.241 307.245 108.834 306.75 108.827L306.751 108.827Z" fill="#2A67B2"/>
<path d="M314.328 106.925L314.305 106.936C313.862 107.157 313.684 107.695 313.905 108.138C314.062 108.451 314.379 108.632 314.708 108.632C314.843 108.632 314.98 108.602 315.109 108.537C315.554 108.321 315.74 107.785 315.525 107.34C315.309 106.895 314.772 106.709 314.328 106.924V106.925Z" fill="#2A67B2"/>
<path d="M310.63 108.318L310.599 108.326C310.12 108.452 309.833 108.943 309.96 109.422C310.066 109.823 310.427 110.089 310.824 110.089C310.899 110.089 310.976 110.08 311.053 110.059C311.534 109.943 311.829 109.458 311.712 108.977C311.596 108.496 311.111 108.201 310.63 108.318Z" fill="#2A67B2"/>
<path d="M317.712 104.847C317.312 105.138 317.223 105.697 317.513 106.098C317.688 106.34 317.962 106.468 318.239 106.468C318.421 106.468 318.605 106.413 318.764 106.298L318.795 106.274C319.188 105.973 319.261 105.411 318.96 105.018C318.661 104.628 318.104 104.553 317.712 104.847Z" fill="#2A67B2"/>
<path d="M299.594 106.433L299.579 106.421C299.193 106.111 298.632 106.175 298.322 106.561C298.012 106.947 298.076 107.512 298.462 107.823C298.628 107.958 298.828 108.024 299.027 108.024C299.287 108.024 299.546 107.911 299.722 107.694C300.035 107.311 299.977 106.746 299.594 106.434L299.594 106.433Z" fill="#2A67B2"/>
<path d="M302.952 108.24L302.92 108.229C302.449 108.076 301.941 108.334 301.789 108.804C301.637 109.275 301.892 109.779 302.363 109.932C302.46 109.966 302.56 109.982 302.657 109.982C303.028 109.982 303.374 109.75 303.504 109.381C303.667 108.913 303.419 108.403 302.952 108.24Z" fill="#2A67B2"/>
<path d="M297.06 103.541C296.798 103.122 296.245 102.993 295.825 103.254C295.405 103.515 295.276 104.068 295.538 104.487C295.706 104.767 296.003 104.922 296.307 104.922C296.464 104.922 296.623 104.881 296.768 104.794C297.192 104.54 297.33 103.989 297.075 103.566L297.06 103.541V103.541Z" fill="#2A67B2"/>
<path d="M295.508 99.9911L295.503 99.9742C295.363 99.4996 294.866 99.233 294.392 99.3725C293.917 99.512 293.647 100.015 293.786 100.49C293.9 100.882 294.258 101.137 294.647 101.137C294.73 101.137 294.813 101.125 294.896 101.101C295.372 100.963 295.645 100.466 295.508 99.9911Z" fill="#2A67B2"/>
<path d="M284.624 205.989H133.866V220.95H284.624V205.989Z" fill="#D9A317"/>
<path d="M287.785 199.113H130.706V209.182H287.785V199.113Z" fill="#D9A317"/>
<path d="M221.303 175.869H195.411V197.092H221.303V175.869Z" fill="#43435B"/>
<path d="M232.225 195.982H184.489V199.113H232.225V195.982Z" fill="#68688C"/>
<path d="M284.771 84.1018L140.203 85.2374C139.657 85.2374 139.202 85.6553 139.156 86.199L129.609 174.731C129.557 175.343 130.083 177.005 131.681 177.005H278.49C279.036 177.005 279.491 176.587 279.537 176.043L287.096 86.3757C287.31 84.3704 285.386 84.1018 284.771 84.1018Z" fill="#68688C"/>
<path d="M284.771 84.1018H138.214C137.668 84.1018 137.213 84.5197 137.168 85.0634L129.609 174.731C129.557 175.343 130.04 175.869 130.655 175.869H277.212C277.758 175.869 278.213 175.451 278.258 174.907L285.817 85.2401C285.869 84.6279 285.386 84.1018 284.771 84.1018Z" fill="#141422"/>
<path d="M162.762 167.893L274.842 167.859L280.973 88.3615H169.135L162.762 167.893Z" fill="#AADCFC"/>
<path d="M134.728 167.902L162.762 167.893L169.135 88.3615H141.161L134.728 167.902Z" fill="#95C7EC"/>
<path d="M140.792 92.9295L280.621 92.9269L280.973 88.3615H141.161L140.792 92.9295Z" fill="#004681"/>
<path d="M144.718 105.778L162.396 105.777L162.605 103.199L144.928 103.199L144.718 105.778Z" fill="#2A67B2"/>
<path d="M144.278 111.209L161.956 111.207L162.165 108.628L144.487 108.63L144.278 111.209Z" fill="#2A67B2"/>
<path d="M143.836 116.64L161.515 116.638L161.724 114.059L144.045 114.061L143.836 116.64Z" fill="#2A67B2"/>
<path d="M143.395 122.072L161.075 122.069L161.284 119.49L143.604 119.492L143.395 122.072Z" fill="#2A67B2"/>
<path d="M142.954 127.503L160.633 127.5L160.843 124.921L143.164 124.924L142.954 127.503Z" fill="#2A67B2"/>
<path d="M142.512 132.935L160.192 132.931L160.402 130.352L142.722 130.356L142.512 132.935Z" fill="#2A67B2"/>
<path d="M142.071 138.367L159.752 138.364L159.961 135.784L142.281 135.788L142.071 138.367Z" fill="#2A67B2"/>
<path d="M229.296 205.989H57.2871V220.95H229.296V205.989Z" fill="#EAB325"/>
<path d="M232.901 199.113H53.6824V209.182H232.901V199.113Z" fill="#FFC632"/>
<path d="M136.229 193.553C135.952 193.469 135.796 193.463 135.796 193.463L136.229 193.553Z" fill="#BF6D60"/>
<path d="M137.468 185.759L126.812 185.583L127.968 197.245L138.732 197.238C138.732 197.238 139.987 196.359 138.436 194.932C137.471 194.043 136.685 193.692 136.228 193.553L135.796 193.463C135.796 193.463 135.952 193.469 136.228 193.553L140.863 194.52L149.941 195.372C149.941 195.372 154.278 195.203 152.506 192.234L137.468 185.759Z" fill="#BF6D60"/>
<path d="M206.206 191.402C202.739 191.734 197.474 198.904 202.803 199.177H216.629C216.629 199.177 218.848 197.446 216.788 194.816C214.726 192.183 209.674 191.069 206.206 191.402Z" fill="#141422"/>
<path d="M142.501 187.627L126.234 187.451L127.389 199.113L143.764 199.106C143.764 199.106 145.019 198.227 143.469 196.8C141.919 195.373 140.829 195.331 140.829 195.331L145.233 194.705L154.974 197.24C154.974 197.24 159.31 197.071 157.538 194.102L142.501 187.627Z" fill="#EE8D6F"/>
<path d="M215.846 187.741C215.252 186.732 213.464 186.625 212.727 186.331C211.704 185.923 212.396 184.331 211.507 183.642C210.739 183.048 210.348 183.137 208.311 183.263C207.052 183.34 208.822 180.245 201.928 181.991C198.578 182.84 190.968 188.21 190.968 188.21C190.968 188.21 191.971 196.658 194.166 197.853C197.628 199.738 201.947 199.481 205.28 197.911C210.096 195.645 211.749 194.639 213.454 194.639C215.16 194.639 217.436 195.971 217.436 195.971C217.848 196.048 218.94 193.691 216.616 191.329C216.219 190.925 216.769 189.31 215.846 187.74V187.741Z" fill="#EE8D6F"/>
<path d="M192.569 187.091C190.483 187.376 189.291 187.612 189.291 187.612C189.291 187.612 189.779 197.294 191.973 198.489C193.413 199.273 193.611 198.744 195.363 198.489C196.034 196.105 196.145 194.913 195.511 192.007C195.389 191.337 193.873 187.091 192.569 187.091Z" fill="white"/>
<path d="M135.76 123.23C121.844 116.11 116.8 110.447 97.8453 110.001C86.0142 109.722 88.7464 109.353 71.1927 115.031C66.9435 116.405 63.9922 118.966 61.6707 121.678C52.5158 132.372 54.3973 146.767 54.4357 160.625C54.4683 172.372 53.2329 205.544 54.4781 220.951H129.244C126.235 212.919 130.821 187.439 133.197 177.326C136.089 165.013 148.609 129.805 135.76 123.231V123.23Z" fill="#17457E"/>
<path d="M139.255 131.491C139.141 131.337 139.025 131.182 138.909 131.029C138.899 131.016 138.879 130.989 138.855 130.959C138.812 130.903 138.772 130.852 138.755 130.83C138.635 130.68 138.516 130.53 138.396 130.38C137.994 129.882 137.584 129.392 137.165 128.91C136.285 127.899 135.367 126.922 134.406 125.988C133.443 125.051 132.438 124.157 131.394 123.312C131.267 123.209 131.139 123.108 131.011 123.007C130.763 122.821 130.516 122.636 130.264 122.455C129.737 122.075 129.201 121.708 128.656 121.353C127.493 120.596 126.292 119.9 125.058 119.267C124.292 118.873 123.509 118.521 122.722 118.178C122.719 118.177 122.718 118.176 122.715 118.175C122.693 118.166 122.669 118.157 122.641 118.146C122.487 118.085 122.333 118.021 122.179 117.959C121.795 117.807 121.41 117.66 121.022 117.516C117.799 116.325 114.479 115.523 111.086 114.997C111.022 114.989 110.957 114.981 110.892 114.973C110.731 114.953 110.57 114.935 110.409 114.917C109.965 114.867 109.519 114.824 109.073 114.787C108.255 114.718 97.7384 112.987 97.6569 111.157C97.6386 110.747 97.7019 110.359 97.8283 110.001C86.0174 109.722 88.7379 109.357 71.1927 115.031C66.9435 116.405 63.9922 118.966 61.6707 121.678C52.5158 132.372 54.3973 146.767 54.4357 160.625C54.4683 172.372 53.2329 205.544 54.4781 220.951H127.057C126.202 215.822 125.746 210.602 125.651 205.427C125.448 194.269 126.958 182.98 130.243 172.309C130.825 170.421 132.672 169.41 134.582 169.845C134.774 169.889 134.959 169.953 135.135 170.033C137.965 159.825 142.088 144.975 141.364 134.529C140.69 133.497 139.989 132.482 139.255 131.491Z" fill="#2A67B2"/>
<path d="M87.1215 153.998C78.8317 152.917 59.5387 153.511 42.2953 154.001C30.0249 154.349 31.8431 165.172 31.8431 165.172C31.8431 165.172 34.8752 205.418 36.606 220.95H114.595C112.007 202.252 103.163 174.012 100.301 165.546C97.9226 158.508 95.4114 155.079 87.1215 153.998V153.998Z" fill="#E2D0CC"/>
<path d="M80.5124 153.998C72.2226 152.917 52.9296 153.511 35.6862 154.001C23.4157 154.35 25.2339 165.172 25.2339 165.172C25.2339 165.172 28.266 205.418 29.9969 220.95H107.986C105.398 202.252 96.5536 174.012 93.6923 165.546C91.3135 158.508 88.8023 155.079 80.5124 153.998V153.998Z" fill="white"/>
<rect width="45.1099" height="13.8696" transform="matrix(1 0 0.132164 0.991228 37.4878 182.632)" fill="white"/>
<path d="M48.6699 189.506H40.2561L39.6946 185.294H48.1084L48.6699 189.506Z" fill="#3069B1"/>
<path d="M45.0288 193.717H40.8169L40.2554 189.506H44.4673L45.0288 193.717Z" fill="#FFC032"/>
<path d="M49.2309 193.717H45.029L44.4675 189.506H48.6694L49.2309 193.717Z" fill="#90C4E9"/>
<path d="M53.3607 191.972L52.8125 187.861H51.2481L51.1746 187.31H54.9352L55.0087 187.861H53.4443L53.9924 191.972H53.3607ZM57.5866 191.551C57.3901 191.732 57.2069 191.862 57.0157 191.932C56.8258 192.012 56.6092 192.042 56.3785 192.042C56.0075 192.042 55.7046 191.952 55.47 191.772C55.2453 191.591 55.1143 191.361 55.0769 191.08C55.0541 190.909 55.0742 190.759 55.137 190.629C55.1885 190.488 55.2741 190.378 55.3938 190.298C55.5034 190.218 55.6345 190.147 55.7795 190.107C55.8959 190.077 56.0623 190.047 56.2903 190.027C56.7536 189.967 57.0966 189.907 57.3065 189.826C57.2958 189.746 57.2892 189.696 57.2865 189.676C57.2557 189.445 57.1829 189.275 57.0605 189.185C56.8927 189.054 56.6641 188.994 56.3733 188.994C56.0925 188.994 55.8972 189.034 55.7802 189.135C55.6619 189.225 55.5843 189.395 55.5563 189.636L54.9739 189.556C54.992 189.315 55.0569 189.125 55.1571 188.974C55.2487 188.834 55.4132 188.713 55.6231 188.633C55.8331 188.553 56.0985 188.513 56.3893 188.513C56.6801 188.513 56.9262 188.553 57.1147 188.613C57.3146 188.683 57.457 188.774 57.5606 188.874C57.6542 188.974 57.7318 189.105 57.7933 189.265C57.8267 189.365 57.8595 189.536 57.8929 189.786L57.9958 190.558C58.0667 191.09 58.1208 191.421 58.1696 191.561C58.2084 191.701 58.2773 191.842 58.3648 191.972H57.7531C57.6769 191.852 57.6281 191.711 57.5866 191.551ZM57.3667 190.278C57.1668 190.358 56.8553 190.428 56.4421 190.488C56.2067 190.528 56.0403 190.558 55.9467 190.609C55.8517 190.649 55.7896 190.709 55.7401 190.789C55.7006 190.869 55.6826 190.959 55.696 191.06C55.7173 191.22 55.7936 191.341 55.9273 191.441C56.061 191.541 56.2395 191.601 56.4601 191.601C56.6908 191.601 56.8846 191.551 57.0418 191.451C57.2102 191.361 57.3132 191.23 57.3807 191.06C57.4235 190.929 57.4282 190.739 57.3948 190.488L57.3667 190.278ZM59.0768 191.972L58.4552 187.31H59.0368L59.6585 191.972H59.0768ZM60.551 191.972L59.9294 187.31H60.511L61.1327 191.972H60.551ZM62.189 193.276L62.0466 192.734C62.181 192.764 62.2939 192.784 62.3942 192.784C62.5246 192.784 62.6222 192.764 62.6971 192.724C62.7606 192.674 62.8228 192.614 62.8636 192.544C62.8856 192.484 62.9271 192.343 62.9866 192.113C62.9926 192.082 62.9959 192.032 63.018 191.972L61.2638 188.593H61.8855L62.8683 190.548C62.992 190.799 63.107 191.06 63.2233 191.33C63.2487 191.07 63.2942 190.809 63.361 190.558L63.8311 188.593H64.4127L63.5562 192.022C63.4653 192.393 63.3997 192.654 63.3382 192.794C63.2634 192.985 63.1604 193.115 63.032 193.205C62.9137 193.296 62.7586 193.336 62.568 193.336C62.4577 193.336 62.3347 193.316 62.189 193.276ZM65.4349 191.972L64.8132 187.31H66.6083C66.9192 187.31 67.1612 187.32 67.3357 187.35C67.5717 187.39 67.7816 187.46 67.9568 187.57C68.1219 187.681 68.2723 187.831 68.398 188.022C68.5137 188.212 68.5919 188.423 68.6226 188.653C68.6761 189.054 68.5899 189.385 68.3666 189.666C68.1519 189.937 67.6993 190.077 67.0274 190.077H65.814L66.0667 191.972H65.4349ZM65.7404 189.526H66.9639C67.3751 189.526 67.6552 189.445 67.807 189.305C67.9574 189.155 68.0096 188.944 67.9735 188.673C67.9481 188.483 67.8752 188.312 67.7562 188.172C67.6372 188.032 67.4948 187.941 67.329 187.901C67.2147 187.871 67.0228 187.861 66.732 187.861H65.5185L65.7404 189.526ZM69.7872 191.972L69.3367 188.593H69.8581L69.9263 189.105C70.0246 188.864 70.1336 188.703 70.2345 188.633C70.3342 188.553 70.4592 188.513 70.5895 188.513C70.7901 188.513 70.9987 188.573 71.2166 188.703L71.0869 189.235C70.9345 189.145 70.7888 189.105 70.6484 189.105C70.518 189.105 70.403 189.145 70.3134 189.225C70.2225 189.295 70.1657 189.395 70.1443 189.536C70.1008 189.736 70.1001 189.957 70.1322 190.197L70.3688 191.972H69.7872ZM71.4687 187.961L71.3818 187.31H71.9635L72.0504 187.961H71.4687ZM72.0035 191.972L71.5529 188.593H72.1346L72.5851 191.972H72.0035ZM73.4776 191.972L73.0271 188.593H73.5486L73.6114 189.064C73.7003 188.904 73.822 188.764 73.9892 188.663C74.1563 188.563 74.3502 188.513 74.5809 188.513C74.8416 188.513 75.0589 188.563 75.234 188.673C75.4079 188.774 75.5482 188.924 75.6325 189.105C75.8511 188.713 76.1854 188.513 76.6166 188.513C76.9576 188.513 77.2404 188.603 77.4463 188.794C77.6522 188.984 77.7799 189.265 77.8307 189.646L78.1409 191.972H77.5692L77.2858 189.847C77.2551 189.616 77.2123 189.445 77.1588 189.345C77.1053 189.245 77.0244 189.165 76.9161 189.105C76.8178 189.044 76.6935 189.014 76.5531 189.014C76.3124 189.014 76.1225 189.095 75.9821 189.245C75.8431 189.405 75.7963 189.656 75.8431 190.007L76.1051 191.972H75.5234L75.2307 189.776C75.1972 189.526 75.1204 189.325 75.0141 189.205C74.8964 189.074 74.738 189.014 74.5173 189.014C74.3569 189.014 74.2118 189.054 74.0821 189.135C73.9537 189.225 73.8695 189.345 73.8307 189.506C73.7933 189.676 73.7839 189.907 73.8253 190.218L74.0593 191.972H73.4776ZM81.2243 190.879L81.8367 190.959C81.7819 191.3 81.6475 191.571 81.4121 191.762C81.1868 191.952 80.8679 192.042 80.4668 192.042C79.9654 192.042 79.5442 191.892 79.2132 191.591C78.8709 191.28 78.6644 190.859 78.5908 190.308C78.516 189.746 78.6076 189.305 78.8656 188.984C79.1251 188.673 79.4847 188.513 79.9661 188.513C80.4274 188.513 80.8199 188.673 81.1508 188.974C81.4831 189.285 81.691 189.716 81.7658 190.278C81.7698 190.308 81.7765 190.358 81.7859 190.428H79.2186C79.2881 190.799 79.4259 191.08 79.6532 191.28C79.8704 191.481 80.1232 191.571 80.4039 191.571C80.6246 191.571 80.7984 191.521 80.9341 191.411C81.0698 191.3 81.1661 191.12 81.2243 190.879ZM79.1859 189.957H81.1113C81.0438 189.676 80.9442 189.455 80.8051 189.315C80.5852 189.095 80.3298 188.984 80.0289 188.984C79.7682 188.984 79.5496 189.074 79.3931 189.255C79.2354 189.425 79.1672 189.666 79.1859 189.957Z" fill="#3069B1"/>
<path d="M136.497 195.742L133.379 195.789C133.379 195.789 136.447 196.677 137.816 196.449C141.732 195.796 143.261 197.237 143.261 197.237L145.233 195.33L140.267 195.227L136.497 195.742Z" fill="#BF6D60"/>
<path d="M188.831 186.914L187.056 186.941C187.056 186.941 164.28 182.497 162.633 182.264C161.818 182.149 155.761 175.074 152.93 160.891C148.473 138.556 145.232 127.356 133.378 121.925C123.803 117.538 123.689 173.121 123.689 173.121C123.689 173.121 140.62 208.644 154.435 208.634C164.346 208.627 190.966 199.735 190.966 199.735L193.68 199.113C193.68 199.113 196.476 196.932 193.68 190.32C191.961 186.256 188.83 186.914 188.83 186.914H188.831Z" fill="#17457E"/>
<path d="M192.254 188.17C192.021 188.198 191.787 188.224 191.554 188.25C187.29 188.717 184.919 188.638 180.636 188.418C176.429 188.203 172.217 186.503 168.082 185.696C164.337 184.965 160.346 183.756 158.529 180.329C148.787 161.957 145.772 139.491 145.696 139.32C145.52 138.921 144.378 136.504 143.96 135.706C143.148 134.159 142.261 132.649 141.272 131.208C141.017 130.835 140.755 130.467 140.486 130.104C140.463 130.073 140.439 130.042 140.416 130.011C140.33 129.903 140.246 129.793 140.159 129.686C139.639 129.047 139.094 128.427 138.521 127.834C137.938 127.23 137.326 126.653 136.684 126.112C136.544 125.994 136.401 125.88 136.259 125.764C136.256 125.762 136.253 125.76 136.25 125.758C135.925 125.525 135.6 125.294 135.264 125.075C134.594 124.64 133.899 124.244 133.18 123.895C133.014 123.814 132.845 123.74 132.677 123.662C132.299 123.515 131.917 123.382 131.531 123.258C131.102 123.121 130.718 122.92 130.385 122.67C123.779 129.815 123.689 173.12 123.689 173.12C123.689 173.12 140.621 208.643 154.435 208.634C164.347 208.626 190.967 199.735 190.967 199.735L193.681 199.153C193.681 199.153 196.477 196.972 193.681 190.36C193.266 189.38 192.769 188.676 192.254 188.17Z" fill="#2A67B2"/>
<path opacity="0.4" d="M125.982 73.3739L125.271 83.7577C125.271 83.7577 127.003 83.2029 127.394 82.7407C127.786 82.2785 129.082 76.0546 129.082 76.0546L128.991 73.8361L125.982 73.3739Z" fill="white"/>
<path d="M126.64 72.0974L126.683 73.9248L128.764 75.0969C128.764 75.0969 128.809 75.9008 128.386 78.9048C128.179 80.3788 127.399 82.2401 126.889 82.8027C126.381 83.3653 125.686 83.4252 125.686 83.4252L125.708 83.9227C125.708 83.9227 126.09 83.8757 126.502 83.8255C126.914 83.7747 127.273 83.435 127.833 82.4115C129.285 79.7536 130.015 74.4235 129.748 73.0303C129.481 71.6372 126.64 72.0974 126.64 72.0974Z" fill="#141422"/>
<path d="M126.931 74.1301C126.884 72.63 125.807 66.4381 125.807 66.4381L90.9438 96.6977C90.9438 96.6977 92.1401 99.366 91.2913 102.013C90.1204 105.664 88.0427 109.927 88.0427 109.927C98.628 113.198 112.663 113.386 112.663 113.386L113.26 105.664C113.26 105.664 115.117 105.613 118.521 105.258C122.215 104.873 124.042 96.4969 125.699 89.1041C126.755 84.3933 126.146 81.5457 125.934 79.9172C125.723 78.2887 126.977 75.6302 126.931 74.1301Z" fill="#EE8D6F"/>
<path d="M100.998 48.4293C81.9825 50.8219 80.3573 66.1349 79.7718 73.1307C79.7184 73.7715 79.5808 74.4176 79.6923 75.0382C81.2908 83.9233 89.0135 93.9459 91.0051 98.2812C91.4295 99.205 92.807 99.4064 93.9335 99.6802C93.9961 99.6952 94.0587 99.7102 94.122 99.7245C96.9578 100.365 100.828 100.013 100.828 100.013C109.128 98.6769 109.128 87.8948 115.393 79.985C116.532 78.5455 117.612 77.346 119.377 77.4099C119.529 77.4151 119.67 77.4262 119.803 77.4412C119.902 77.3714 120.005 77.3069 120.113 77.2508C121.723 76.4196 122.518 76.7977 123.897 78.5827C124.032 78.1739 125.303 75.4828 125.408 74.9841C125.408 74.9841 125.408 74.9828 125.408 74.9821C125.542 74.3452 125.649 73.6353 125.715 72.8406C125.761 72.293 125.912 67.901 126.592 66.9557C129.802 62.4887 124.355 45.4905 100.998 48.4293Z" fill="#33221C"/>
<path d="M96.9552 67.4799C95.4623 55.9206 90.3115 53.5515 88.9568 53.0385C88.8994 53.0163 88.844 52.9909 88.7905 52.9622C81.3162 58.6913 80.1943 68.079 79.7718 73.1307C79.7184 73.7716 79.5808 74.4176 79.6923 75.0382C81.2908 83.9233 89.0135 93.9459 91.0051 98.2812C91.4295 99.205 92.807 99.4064 93.9335 99.6803C93.9961 99.6952 94.0587 99.7102 94.122 99.7246C96.9578 100.365 100.828 100.013 100.828 100.013C104.759 99.3797 106.492 99.2213 111.134 87.3667C110.711 87.0688 96.9552 81.3814 96.9552 67.4799Z" fill="#2B1E18"/>
<path d="M92.7953 90.4542C92.749 89.8323 92.7523 89.2025 92.7959 88.5715C92.7836 88.5552 92.7705 88.5395 92.7588 88.5232C89.7899 84.3509 87.0766 80.0046 84.1534 75.801C82.8417 73.915 81.446 72.0961 80.0293 70.2935C79.9179 71.334 79.8416 72.2923 79.7718 73.1307C79.7184 73.7715 79.5808 74.4176 79.6923 75.0382C81.2908 83.9233 89.0135 93.9459 91.0051 98.2812C91.4295 99.205 92.807 99.4064 93.9335 99.6802C93.9961 99.6952 94.0587 99.7102 94.122 99.7246C95.6605 100.072 97.9637 100.127 99.1515 100.105C96.3939 97.6638 93.0665 94.0757 92.7953 90.4549V90.4542Z" fill="#2B1E18"/>
<path d="M89.4366 89.8082L89.3493 88.9151L89.2789 88.0317L89.2215 87.1594C89.2065 86.87 89.1889 86.5831 89.1674 86.3002L89.1244 85.4501C89.1172 85.1665 89.1361 84.8784 89.1687 84.5909C89.2104 84.3008 89.2645 84.0113 89.2958 83.7297C89.3356 83.4461 89.3447 83.1723 89.2997 82.9076C89.2652 82.6416 89.1791 82.3841 89.0533 82.1299C88.936 81.8743 88.7906 81.6201 88.6152 81.3645C88.449 81.1083 88.2547 80.8501 88.0213 80.5894C87.7931 80.3279 87.5415 80.062 87.2358 79.7901C87.0839 79.6539 86.9313 79.5157 86.7488 79.3761L86.475 79.1643C86.3693 79.0932 86.2774 79.0208 86.1601 78.9485L85.5714 78.9563C85.4586 79.0332 85.3706 79.1115 85.2696 79.1897L85.0088 79.427C84.8347 79.5867 84.6913 79.7477 84.5485 79.9114C84.2793 80.2373 84.0635 80.5698 83.8718 80.9062C83.6939 81.2419 83.5537 81.5809 83.4429 81.9206C83.3412 82.2596 83.2688 82.5999 83.2245 82.9389C83.1899 83.2766 83.1951 83.611 83.2525 83.937C83.3177 84.2616 83.4357 84.5765 83.585 84.8823C83.7441 85.1861 83.9259 85.482 84.0948 85.7774C84.2728 86.0707 84.437 86.3634 84.5746 86.6614L85.0205 87.5408C85.1789 87.829 85.3426 88.1139 85.5075 88.3955L86.0434 89.2195L86.6184 90.0136L87.2273 90.777C87.4431 91.0234 87.6523 91.2685 87.8707 91.5071C88.0943 91.7431 88.3219 91.9739 88.5494 92.2008C88.7912 92.4205 89.0233 92.6415 89.2704 92.8507L89.7848 92.5652L89.539 90.7131C89.5084 90.4067 89.4692 90.1074 89.4353 89.8082H89.4366Z" fill="#2B1E18"/>
<path d="M127.365 64.9882C127.422 64.6779 127.461 64.3506 127.481 64.0084C127.279 63.9901 127.079 63.9627 126.88 63.9262C127.026 64.2861 127.191 64.6388 127.365 64.9882H127.365Z" fill="#39261F"/>
<path d="M87.5709 53.5496C78.7504 56.5739 80.1918 68.109 79.7719 73.1307C79.1917 81.1689 87.6133 90.7881 91.0052 98.2813C88.4823 92.708 94.6984 89.9119 97.3595 82.7212C99.8127 77.3089 98.3107 68.4004 97.5538 62.4373C96.8927 59.5727 91.7914 52.1023 87.5715 53.5489L87.5709 53.5496Z" fill="#2B1E18"/>
<path d="M121.404 74.445C118.633 74.209 118.458 76.6772 117.367 80.1545C116.275 83.6319 117.274 85.544 117.786 87.0245C118.297 88.505 119.8 88.0734 120.319 87.368C120.837 86.6627 120.039 84.0576 120.039 84.0576C120.793 81.1852 121.477 80.4622 121.457 80C121.438 79.5378 121.526 78.5893 122.127 76.1732C122.405 75.0532 122.002 74.4958 121.406 74.445H121.404Z" fill="#D67F63"/>
<path d="M90.2068 104.918L84.9888 110.844C96.8603 115.527 116.9 113.549 116.9 113.549L113.36 108.186C99.1544 104.23 90.2074 104.918 90.2074 104.918H90.2068Z" fill="white"/>
<path d="M105.903 106.434C105.896 106.424 105.89 106.413 105.883 106.402C96.0878 104.465 90.2068 104.918 90.2068 104.918L84.9888 110.843C94.059 114.422 107.897 114.111 113.922 113.766C110.807 111.852 107.986 109.512 105.903 106.434Z" fill="#F5F5F5"/>
<path d="M123.131 73.1542C121.911 73.4182 119.884 74.4267 119.432 74.6386C118.98 74.8505 115.957 78.6173 115.957 78.6173C115.549 79.7953 116.6 80.5756 116.993 80.5411C117.386 80.5065 119.447 76.8408 119.711 76.3779C119.976 75.9151 122.471 75.0708 123.111 74.8818C123.75 74.6927 129.553 74.6236 129.553 74.6236L129.464 72.5068C129.464 72.5068 124.351 72.8895 123.131 73.1535L123.131 73.1542Z" fill="#141422"/>
<path d="M121.953 74.49C119.181 74.2546 119.015 76.6191 117.935 79.9485C116.856 83.2779 118.237 85.3764 118.753 86.7976C119.269 88.2181 119.802 88.0415 120.318 87.3674C120.833 86.6933 120.619 83.6984 120.619 83.6984C121.364 80.9479 122.044 80.2569 122.023 79.8142C122.002 79.3716 122.087 78.4621 122.679 76.1491C122.954 75.0767 122.549 74.5415 121.953 74.4906V74.49Z" fill="#EE8D6F"/>
<path d="M100.897 74.5753C100.485 74.1587 100.149 73.6737 99.8322 73.1965C99.516 72.718 99.181 72.2747 98.8054 71.8464C98.4319 71.4168 98.0479 70.9832 97.6418 70.5321C97.2337 70.081 96.8119 69.6122 96.3177 69.105L96.0602 69.1513C95.9363 69.5164 95.8966 69.8743 95.8829 70.2335C95.8725 70.5914 95.9031 70.9448 95.9579 71.2942C96.0745 71.9891 96.3014 72.6619 96.6209 73.2845C96.9383 73.9091 97.3771 74.4645 97.9025 74.9234C98.428 75.3831 98.9984 75.7781 99.5486 76.1758C100.106 76.5656 100.681 76.9209 101.278 77.2254C101.425 77.3043 101.58 77.3695 101.73 77.4418C101.882 77.5109 102.03 77.5866 102.186 77.6452C102.494 77.7691 102.8 77.8956 103.113 77.9986C104.362 78.4223 106.98 78.5657 106.98 78.5657C105.818 78.0546 104.704 77.492 103.682 76.8212C102.656 76.1601 101.724 75.4026 100.897 74.576L100.897 74.5753Z" fill="#2B1E18"/>
<path d="M96.8744 60.6777L93.6252 62.9985C94.7746 65.8826 97.8621 67.2523 100.774 67.5796C103.551 68.1076 106.454 68.0672 109.236 67.6102C109.236 67.6102 105.046 67.0659 103.222 66.1623C98.7011 63.9256 97.3438 61.6041 96.8744 60.677V60.6777Z" fill="#2B1E18"/>
<path d="M83.8118 52.4739C79.5613 51.9041 74.915 55.2583 73.3869 57.6117C66.2132 68.6592 71.3471 86.9195 79.6917 102.218C83.5797 85.8269 86.6033 83.774 92.4576 72.3725C96.7329 64.0462 96.0888 54.1187 83.8112 52.4739H83.8118Z" fill="#33221C"/>
<path d="M86.6126 76.5357C82.4148 84.9585 84.7565 89.3068 82.2075 96.3861C82.2075 96.3861 89.7829 86.9919 92.1591 81.2895C93.3626 78.391 94.8327 75.5108 95.0921 72.306C95.3855 69.1051 95.952 61.2937 93.0079 57.2094C93.0079 57.2094 91.5118 66.7066 86.6132 76.5357H86.6126Z" fill="#33221C"/>
<path d="M82.1362 57.613C81.8441 57.8144 81.5736 58.0347 81.3089 58.2636C80.7841 58.7232 80.3141 59.2297 79.8734 59.7584C79.007 60.823 78.2977 61.9945 77.7266 63.2169C77.5825 63.5226 77.458 63.8342 77.3341 64.1472C77.2122 64.4607 77.1125 64.7802 77.014 65.1003C76.8296 65.7437 76.6861 66.3989 76.5929 67.0606C76.4038 68.3853 76.3152 69.7139 76.1913 71.021C75.9247 73.6366 75.926 76.2521 76.0961 78.8356C76.2787 81.4199 76.6059 83.9754 77.136 86.4853L77.5662 86.4534C77.7175 83.9076 77.9085 81.3873 78.2527 78.9028C78.3388 78.2822 78.4163 77.6628 78.5239 77.0474L78.6699 76.1249L78.8375 75.2083L78.9164 74.7507L79.007 74.2956L79.1876 73.3869L79.3857 72.484L79.4855 72.0335L79.5963 71.5863C79.8753 70.3906 80.3102 69.2354 80.7359 68.1011L81.0416 67.249C81.144 66.9667 81.2268 66.6779 81.3213 66.395C81.4132 66.1108 81.4888 65.8213 81.569 65.5338C81.6512 65.2476 81.7183 64.9549 81.7907 64.6648C82.071 63.4992 82.3429 62.3283 82.6023 61.1216C82.8644 59.9149 83.1252 58.6841 83.3925 57.3502L83.0665 57.0673C82.7236 57.2238 82.4257 57.4089 82.1349 57.6123L82.1362 57.613Z" fill="#3C2621"/>
<path d="M79.6266 56.7316C79.2987 56.8378 78.9754 56.9715 78.6709 57.1312C78.0568 57.4493 77.4975 57.8575 76.9831 58.3112C75.9661 59.2284 75.1466 60.3374 74.5234 61.5121C73.8956 62.6882 73.4862 63.9523 73.2906 65.2326C73.2619 65.3924 73.2398 65.5527 73.2209 65.7131L73.1615 66.1929L73.1055 66.6721L73.065 67.1506L72.9829 68.1018C72.9633 68.4179 72.9379 68.7328 72.9125 69.047C72.7052 71.5596 72.7912 74.0499 73.0292 76.5031C73.2795 78.9563 73.6616 81.3762 74.2 83.7583L74.5775 83.7199C74.6368 81.2882 74.7105 78.8748 74.9256 76.49C74.9661 75.8935 75.0365 75.3003 75.101 74.7083C75.1551 74.1157 75.2457 73.529 75.3213 72.9423C75.3539 72.6483 75.4015 72.3569 75.4485 72.0661L75.5854 71.1945L75.7444 70.3307C75.7979 70.0432 75.8481 69.755 75.9159 69.4728C76.146 68.3299 76.5372 67.2327 76.9264 66.1682C77.0274 65.9035 77.1233 65.6381 77.2139 65.3728C77.3136 65.112 77.4075 64.8506 77.4916 64.5853C77.5816 64.3232 77.6735 64.0657 77.753 63.8004C77.7889 63.6661 77.841 63.5409 77.8808 63.4092L78.004 63.0161C78.33 61.9665 78.6977 60.9489 79.1234 59.9234C79.3411 59.4149 79.5784 58.9077 79.8503 58.4012C80.1195 57.8959 80.4324 57.3815 80.804 56.8965L80.6639 56.5445C80.2929 56.5562 79.9604 56.6273 79.6266 56.7316Z" fill="#3C2621"/>
<path d="M84.7619 59.3647L84.359 59.2102C84.136 59.3504 83.9313 59.4971 83.7462 59.6529C83.5571 59.8067 83.3804 59.9677 83.2129 60.1314C82.8765 60.4586 82.5812 60.8042 82.3048 61.1568C81.7578 61.8655 81.323 62.6191 80.9677 63.3995C80.7917 63.79 80.6515 64.1922 80.5433 64.6023C80.4331 65.0117 80.3797 65.4374 80.3379 65.8637C80.2962 66.2901 80.2851 66.723 80.2643 67.1526C80.2441 67.5822 80.2075 68.0059 80.1723 68.431C79.9859 70.1182 79.937 71.8282 79.9813 73.5271L80.0387 74.8009C80.0465 75.0122 80.0713 75.2253 80.0889 75.4366L80.1502 76.0709L80.2147 76.7019C80.2382 76.9119 80.276 77.1231 80.3073 77.3323C80.3777 77.7515 80.4409 78.1681 80.5185 78.5827H80.9501C81.3106 76.9464 81.6705 75.3538 82.1242 73.7839L82.2024 73.4899L82.2904 73.1965L82.4678 72.6118C82.5845 72.2226 82.6894 71.8334 82.8211 71.4474L83.1777 70.2883L83.5526 69.1364C83.6725 68.7524 83.829 68.3762 83.99 68.002C84.151 67.6285 84.3205 67.2582 84.4861 66.8872C84.8108 66.1447 85.0311 65.3807 85.1198 64.5755C85.1719 64.1752 85.2006 63.7665 85.2169 63.3532C85.2365 62.9405 85.2306 62.5181 85.211 62.0891C85.1576 61.2253 85.0637 60.3439 84.7625 59.3641L84.7619 59.3647Z" fill="#3C2621"/>
<path d="M73.1472 66.8208C72.9907 66.0978 72.8043 65.3683 72.4999 64.5925L72.2045 64.5345C72.0611 64.6994 71.9359 64.867 71.8245 65.0397C71.7078 65.2118 71.6119 65.3866 71.5128 65.5639C71.3251 65.9172 71.1628 66.279 71.0285 66.6441C70.9626 66.8267 70.8948 67.0105 70.8381 67.195C70.784 67.3795 70.7318 67.5646 70.6856 67.7504C70.5871 68.1227 70.5226 68.4956 70.4646 68.8704C70.3524 69.6201 70.3537 70.3751 70.4659 71.1222L70.5506 71.6822C70.5799 71.8686 70.6197 72.0538 70.651 72.2396C70.7181 72.6105 70.7755 72.9808 70.8277 73.3504C71.0376 74.8283 71.316 76.2919 71.6836 77.7314C71.7293 77.9113 71.7717 78.0912 71.8199 78.2705L71.9698 78.8064C72.0709 79.163 72.1661 79.5202 72.2723 79.8749C72.4888 80.5829 72.7254 81.285 72.9679 81.9812L73.2633 81.9245C73.2593 81.5549 73.2463 81.1885 73.2378 80.8215C73.2274 80.4551 73.2059 80.0913 73.2033 79.7256C73.2026 79.3592 73.1909 78.9961 73.1844 78.6323L73.1733 78.0873C73.1713 77.9054 73.1752 77.7235 73.1759 77.5423C73.1746 76.8167 73.1707 76.0944 73.1889 75.3727C73.1876 74.653 73.2157 73.9339 73.2307 73.2188C73.26 72.5029 73.3506 71.7871 73.4438 71.0785C73.4849 70.7238 73.5058 70.3705 73.5175 70.0185C73.5266 69.6664 73.4993 69.3124 73.4719 68.9597C73.4047 68.2531 73.2985 67.5425 73.1479 66.8214L73.1472 66.8208Z" fill="#3C2621"/>
<path d="M89.751 65.7438C89.7288 65.4726 89.7086 65.202 89.665 64.9302C89.6298 64.659 89.5867 64.3885 89.5417 64.1192C89.5228 63.9849 89.4889 63.8493 89.4609 63.715C89.4316 63.5807 89.4035 63.4458 89.3703 63.3121C89.337 63.1778 89.3077 63.0448 89.2719 62.9112L89.1539 62.5116C89.1115 62.3786 89.0711 62.2469 89.0267 62.1152C88.9804 61.9835 88.9322 61.8518 88.88 61.7208C88.781 61.4594 88.6623 61.2012 88.5254 60.9456L88.2268 60.9802C87.8904 62.0461 87.6414 63.0722 87.4171 64.0899C87.2926 64.599 87.2085 65.1043 87.0977 65.6082C86.9979 66.1121 86.9119 66.6148 86.8174 67.1161C86.728 67.6174 86.6674 68.1201 86.599 68.6233C86.5683 68.875 86.5449 69.1279 86.5266 69.3815C86.5162 69.508 86.511 69.6358 86.5031 69.7629L86.4731 70.1436L86.3799 71.6776C86.3271 72.1867 86.2717 72.6972 86.1987 73.205L86.1459 73.5864C86.127 73.7135 86.1009 73.8387 86.0787 73.9652L85.9405 74.7227C85.8473 75.228 85.7723 75.7391 85.6504 76.2384L85.3271 77.7529C85.2801 78.0078 85.2058 78.2548 85.1439 78.5065L84.9509 79.2588C84.8212 79.7601 84.711 80.2712 84.5493 80.7641C84.4 81.2615 84.2449 81.7583 84.0995 82.2603C83.9639 82.7668 83.7729 83.2512 83.6047 83.7466C83.4365 84.2427 83.2631 84.7382 83.0981 85.2389L83.3674 85.3725C83.6432 84.9227 83.9111 84.467 84.1842 84.012C84.4483 83.553 84.7345 83.1019 84.9679 82.626C85.4516 81.682 85.9529 80.7374 86.3695 79.7562C87.2659 77.8148 87.9595 75.7821 88.5502 73.7149C88.6877 73.1959 88.8422 72.6789 88.9993 72.1607C89.1408 71.6398 89.281 71.1163 89.4166 70.5908C89.4479 70.4592 89.4824 70.3281 89.5118 70.1958C89.5365 70.0628 89.5639 69.9304 89.5867 69.7968C89.6337 69.5302 89.676 69.2629 89.7106 68.9949C89.7888 68.4597 89.8071 67.916 89.8143 67.3743C89.8129 67.1024 89.8221 66.8325 89.8038 66.56C89.7862 66.2875 89.7745 66.0163 89.7523 65.7451L89.751 65.7438Z" fill="#3C2621"/>
<path d="M92.1421 61.3876C92.1088 61.2611 92.0664 61.1353 92.0215 61.0102C91.9771 60.885 91.9341 60.7605 91.8859 60.6366C91.7933 60.3882 91.6942 60.1424 91.5912 59.8986C91.4843 59.6555 91.3604 59.4162 91.2339 59.1789C91.1081 58.9423 90.9706 58.7089 90.8206 58.48L90.5246 58.5342C90.3832 59.0674 90.3069 59.5805 90.23 60.0883C90.1883 60.3426 90.1491 60.5942 90.1178 60.8439C90.082 61.0943 90.065 61.3413 90.0266 61.5891C89.9053 62.5774 89.8167 63.5435 89.7306 64.5032C89.6843 64.983 89.6713 65.4608 89.6439 65.9393C89.6341 66.1786 89.6322 66.4185 89.6354 66.6584C89.638 66.7784 89.638 66.899 89.6354 67.0189V67.3801L89.6511 68.1063C89.6543 68.3488 89.6472 68.5914 89.6432 68.8339L89.6243 69.5634C89.6087 69.8059 89.5846 70.0478 89.5618 70.2903L89.49 71.0178L89.3903 71.7434L89.2945 72.4716L89.1713 73.1965L89.0539 73.9254L88.9118 74.6503L88.7723 75.3785C88.724 75.621 88.6641 75.8609 88.6106 76.1028C88.1882 78.0416 87.634 79.9628 87.0408 81.8899L87.3152 82.0125C88.3472 80.2699 89.2501 78.4452 90.0435 76.5585C90.1407 76.3219 90.2437 76.0872 90.3356 75.8479L90.6068 75.1282L90.8734 74.4046L91.1146 73.6711L91.35 72.9345L91.5579 72.1887L91.7613 71.4396L91.9367 70.6827L92.1186 69.9245L92.2881 69.1611C92.3435 68.9062 92.4094 68.6513 92.4615 68.3945L92.6043 67.6206C92.6453 67.3618 92.6968 67.103 92.719 66.8416C92.7438 66.5808 92.764 66.3188 92.7764 66.0567C92.8116 65.5332 92.779 65.0071 92.7392 64.4836C92.6486 63.4366 92.4446 62.3974 92.1434 61.387L92.1421 61.3876Z" fill="#3C2621"/>
<path d="M86.5337 64.6335C86.4013 64.2939 86.2533 63.9536 86.033 63.6041L85.6829 63.5598C85.3824 63.8401 85.1503 64.1289 84.9345 64.419C84.7207 64.7098 84.5381 65.0032 84.3699 65.2991C84.0361 65.8904 83.7852 66.4915 83.5902 67.1004C83.3927 67.7086 83.3099 68.3319 83.3269 68.9721C83.3405 69.611 83.3947 70.2577 83.3588 70.89C83.2949 72.1561 83.2506 73.426 83.2134 74.6992C83.1737 75.9737 83.1339 77.2476 83.0615 78.5351L83.4012 78.6303C83.5511 78.3408 83.69 78.0462 83.836 77.7509L84.2291 76.8551C84.4827 76.2554 84.7213 75.6484 84.9449 75.0395C85.0558 74.7344 85.1692 74.4293 85.2748 74.1236L85.5864 73.203L85.8733 72.278L86.1445 71.3496C86.3198 70.7297 86.5682 70.1214 86.7801 69.506C86.8811 69.1976 86.9652 68.8867 87.0161 68.5705C87.0676 68.2543 87.0865 67.9342 87.0826 67.6102C87.0722 66.9622 87.0004 66.3064 86.8401 65.6394C86.7599 65.3063 86.6608 64.9706 86.533 64.6322L86.5337 64.6335Z" fill="#3C2621"/>
<path d="M98.5667 49.7163C96.1494 50.1628 93.5547 50.9934 92.0247 52.7914L92.2541 52.9622C94.3103 51.8226 96.8769 51.7066 99.2447 51.747C101.777 52.0703 104.244 52.2438 106.675 51.2515L106.728 50.9914C104.497 49.1002 101.384 49.0474 98.566 49.7169L98.5667 49.7163Z" fill="#3C2621"/>
<path d="M96.9682 54.3677L96.9402 54.6669C99.3327 55.3267 101.791 55.7876 104.265 56.0008C106.753 56.4786 110.371 56.2622 111.38 53.4648L111.154 53.2659C108.245 54.2099 99.9521 54.0046 96.9682 54.3677Z" fill="#3C2621"/>
<path d="M113.153 54.8052C111.618 58.5322 101.174 58.9182 97.9838 59.1757L97.9734 59.398C101.802 59.941 114.498 61.2071 113.375 54.8052H113.153H113.153Z" fill="#3C2621"/>
<path d="M105.897 69.7792C102.873 68.9793 99.8502 66.4661 96.6089 66.3103C96.7953 67.5046 97.2021 69.8333 97.15 71.0348C101.269 73.3824 113.921 73.9352 116.749 69.7479C113.75 71.6782 109.237 70.4161 105.898 69.7785L105.897 69.7792Z" fill="#2B1E18"/>
<path d="M103.508 89.009C103.081 88.5826 102.673 88.1413 102.285 87.6843C101.509 86.7703 100.791 85.8178 100.102 84.8458C99.7564 84.3608 99.4761 83.8236 99.1821 83.3033C98.8894 82.7818 98.5445 82.3033 98.1357 81.8658C97.7283 81.4271 97.2856 81.0086 96.8 80.6096C96.3097 80.2132 95.7901 79.8292 95.146 79.5007L94.9061 79.6343C94.869 80.3703 94.9967 81.0275 95.1688 81.6618C95.3488 82.2915 95.5926 82.8887 95.8925 83.4507C96.1898 84.0146 96.5737 84.5218 97.0327 84.9683C97.4916 85.4149 97.9806 85.8328 98.4343 86.2761C98.8913 86.7175 99.3594 87.1471 99.8477 87.5558C100.34 87.96 100.846 88.3479 101.371 88.7091C101.901 89.0631 102.438 89.4053 102.999 89.7033C103.139 89.7782 103.283 89.8467 103.424 89.9184C103.564 89.9908 103.708 90.0573 103.854 90.1205C104.142 90.2509 104.438 90.3637 104.733 90.4706L104.865 90.23C104.63 90.0286 104.392 89.8415 104.169 89.6315C103.94 89.434 103.724 89.2182 103.508 89.009Z" fill="#33221C"/>
<path d="M95.4586 88.9131C95.3276 88.5715 95.1913 88.2351 95.074 87.8902C94.9449 87.5506 94.868 87.1888 94.7728 86.8387C94.6828 86.4854 94.5511 86.1529 94.3745 85.8354C94.1998 85.5172 94.0009 85.2063 93.7734 84.9005C93.5439 84.5954 93.291 84.2955 92.9604 84.0061L92.7955 84.0485C92.6586 84.4755 92.6299 84.8836 92.6345 85.2826C92.6443 85.6802 92.6971 86.0675 92.787 86.443C92.8346 86.6294 92.8913 86.8133 92.9644 86.9899C93.0393 87.166 93.1286 87.3361 93.2264 87.5023C93.4305 87.8309 93.6495 88.1497 93.8477 88.477C94.042 88.8055 94.2552 89.1237 94.4612 89.4438C94.688 89.7528 94.9025 90.067 95.1418 90.3643C95.6086 90.966 96.1236 91.5306 96.666 92.0554L96.8022 91.9537C96.4795 91.2737 96.1477 90.6159 95.8732 89.9308C95.7213 89.5976 95.5962 89.2508 95.4593 88.9125L95.4586 88.9131Z" fill="#33221C"/>
<path d="M111.361 49.3544L111.287 49.6185C121.107 53.9048 124.535 59.7865 127.606 69.6305H127.881C130.95 59.439 120.233 51.3369 111.361 49.3538V49.3544Z" fill="#39261F"/>
<path d="M122.23 56.1664C119.243 53.5326 116.102 51.054 112.427 49.769C112.255 49.7091 112.118 49.6191 112.011 49.5109C111.794 49.4555 111.577 49.4027 111.362 49.3551L111.288 49.6191C121.046 53.8781 124.492 59.7128 127.549 69.4441C127.453 68.416 127.358 67.3872 127.215 66.3637C126.959 64.526 125.272 58.8471 122.232 56.1664H122.23Z" fill="#2B1E18"/>
<path d="M123.516 63.1765L123.342 62.7977L123.155 62.4255L122.775 61.6823L122.367 60.9547C121.803 59.9951 121.199 59.055 120.525 58.1645C119.855 57.272 119.157 56.3972 118.402 55.5686C117.643 54.7445 116.814 53.9837 115.926 53.3005C115.037 52.6193 114.103 51.9967 113.12 51.4647C112.138 50.9321 111.121 50.4594 110.04 50.1589L109.994 50.2671C111.837 51.4751 113.557 52.792 115.18 54.2106C115.992 54.9192 116.787 55.6429 117.57 56.3835C118.351 57.1253 119.096 57.9096 119.784 58.7441C120.477 59.574 121.106 60.4567 121.7 61.3628L122.139 62.0474L122.551 62.7495L122.756 63.1015L122.947 63.4614L123.328 64.1824L123.682 64.9171L123.859 65.2855L124.02 65.661L124.344 66.4126L124.635 67.178C124.839 67.6852 124.994 68.2093 125.169 68.7283C125.261 68.9864 125.326 69.2524 125.404 69.5151L125.629 70.3066L125.744 70.2811C125.361 68.1115 124.715 65.9837 123.861 63.9347L123.516 63.1765Z" fill="#39261F"/>
<path d="M86.6204 53.0978C86.6204 53.0978 93.3286 54.7093 94.6703 61.3583C94.6703 61.3583 95.9031 52.41 86.6204 53.0978Z" fill="#2A295A"/>
<path d="M168.941 163.095H267.14L277.677 31.247H179.358L168.941 163.095Z" fill="white"/>
<path d="M176.795 63.6913H275.084L275.25 61.6237H176.959L176.795 63.6913Z" fill="#60BFFC"/>
<path d="M245.436 56.2892H246.673L246.77 55.058H245.534L245.436 56.2892Z" fill="#43435B"/>
<path d="M245.534 55.058H246.77L246.869 53.8267H245.632L245.534 55.058Z" fill="#43435B"/>
<path d="M248.007 55.058H249.243L249.342 53.8267H248.105L248.007 55.058Z" fill="#43435B"/>
<path d="M249.243 55.058H250.456L250.554 53.8267H249.342L249.243 55.058Z" fill="#43435B"/>
<path d="M245.632 53.8267H246.869L246.967 52.5954H245.73L245.632 53.8267Z" fill="#43435B"/>
<path d="M248.105 53.8267H249.342L249.44 52.5954H248.203L248.105 53.8267Z" fill="#43435B"/>
<path d="M249.342 53.8267H250.555L250.653 52.5954H249.44L249.342 53.8267Z" fill="#43435B"/>
<path d="M245.73 52.5954H246.966L247.065 51.3634H245.828L245.73 52.5954Z" fill="#43435B"/>
<path d="M247.065 51.3634H248.301L248.4 50.1321H247.163L247.065 51.3634Z" fill="#43435B"/>
<path d="M248.301 51.3634H249.538L249.636 50.1321H248.4L248.301 51.3634Z" fill="#43435B"/>
<path d="M250.751 51.3634H251.987L252.086 50.1321H250.849L250.751 51.3634Z" fill="#43435B"/>
<path d="M251.595 56.2892H252.831L252.93 55.058H251.693L251.595 56.2892Z" fill="#43435B"/>
<path d="M246.575 57.5205H247.811L247.909 56.2892H246.673L246.575 57.5205Z" fill="#43435B"/>
<path d="M247.812 57.5205H249.047L249.146 56.2892H247.909L247.812 57.5205Z" fill="#43435B"/>
<path d="M250.26 57.5205H251.497L251.595 56.2892H250.359L250.26 57.5205Z" fill="#43435B"/>
<path d="M249.047 57.5205H250.26L250.359 56.2892H249.146L249.047 57.5205Z" fill="#43435B"/>
<path d="M251.693 55.058H252.93L253.027 53.8267H251.791L251.693 55.058Z" fill="#43435B"/>
<path d="M251.791 53.8267H253.028L253.126 52.5954H251.89L251.791 53.8267Z" fill="#43435B"/>
<path d="M251.89 52.5954H253.126L253.224 51.3634H251.987L251.89 52.5954Z" fill="#43435B"/>
<path d="M245.871 50.8319L245.828 51.3641H247.065L247.162 50.1328H246.615C246.234 50.1328 245.901 50.446 245.871 50.8326V50.8319Z" fill="#43435B"/>
<path d="M252.633 50.1321H252.086L251.988 51.3634H253.224L253.267 50.8311C253.298 50.4445 253.014 50.1313 252.634 50.1313L252.633 50.1321Z" fill="#43435B"/>
<path d="M245.394 56.8215C245.363 57.2081 245.646 57.5212 246.027 57.5212H246.574L246.672 56.29H245.435L245.393 56.8222L245.394 56.8215Z" fill="#43435B"/>
<path d="M251.497 57.5205H252.044C252.425 57.5205 252.758 57.2073 252.789 56.8207L252.831 56.2884H251.594L251.497 57.5197V57.5205Z" fill="#43435B"/>
<path d="M249.538 51.3634H250.751L250.849 50.1321H249.636L249.538 51.3634Z" fill="#43435B"/>
<path d="M254.068 56.2892H255.304L255.403 55.058H254.166L254.068 56.2892Z" fill="#43435B"/>
<path d="M256.541 56.2892H257.754L257.852 55.058H256.64L256.541 56.2892Z" fill="#43435B"/>
<path d="M254.167 55.058H255.403L255.501 53.8267H254.264L254.167 55.058Z" fill="#43435B"/>
<path d="M255.403 55.058H256.639L256.737 53.8267H255.5L255.403 55.058Z" fill="#43435B"/>
<path d="M257.852 55.058H259.088L259.187 53.8267H257.95L257.852 55.058Z" fill="#43435B"/>
<path d="M256.639 55.058H257.851L257.95 53.8267H256.737L256.639 55.058Z" fill="#43435B"/>
<path d="M254.363 52.5954H255.599L255.697 51.3634H254.46L254.363 52.5954Z" fill="#43435B"/>
<path d="M258.048 52.5954H259.285L259.383 51.3634H258.147L258.048 52.5954Z" fill="#43435B"/>
<path d="M255.697 51.3634H256.934L257.032 50.1321H255.796L255.697 51.3634Z" fill="#43435B"/>
<path d="M258.146 51.3634H259.383L259.482 50.1321H258.245L258.146 51.3634Z" fill="#43435B"/>
<path d="M258.991 56.2892H260.227L260.325 55.058H259.089L258.991 56.2892Z" fill="#43435B"/>
<path d="M255.207 57.5205H256.443L256.541 56.2892H255.304L255.207 57.5205Z" fill="#43435B"/>
<path d="M259.285 52.5954H260.521L260.62 51.3634H259.383L259.285 52.5954Z" fill="#43435B"/>
<path d="M256.934 51.3634H258.147L258.245 50.1321H257.032L256.934 51.3634Z" fill="#43435B"/>
<path d="M261.464 56.2892H262.7L262.798 55.058H261.561L261.464 56.2892Z" fill="#43435B"/>
<path d="M262.7 56.2892H263.937L264.035 55.058H262.798L262.7 56.2892Z" fill="#43435B"/>
<path d="M265.149 56.2892H266.386L266.485 55.058H265.248L265.149 56.2892Z" fill="#43435B"/>
<path d="M263.937 56.2892H265.149L265.248 55.058H264.035L263.937 56.2892Z" fill="#43435B"/>
<path d="M260.325 55.058H261.562L261.66 53.8267H260.424L260.325 55.058Z" fill="#43435B"/>
<path d="M261.561 55.058H262.798L262.896 53.8267H261.66L261.561 55.058Z" fill="#43435B"/>
<path d="M262.798 55.058H264.034L264.133 53.8267H262.896L262.798 55.058Z" fill="#43435B"/>
<path d="M260.424 53.8267H261.66L261.758 52.5954H260.521L260.424 53.8267Z" fill="#43435B"/>
<path d="M264.133 53.8267H265.345L265.444 52.5954H264.231L264.133 53.8267Z" fill="#43435B"/>
<path d="M260.521 52.5954H261.758L261.856 51.3634H260.62L260.521 52.5954Z" fill="#43435B"/>
<path d="M262.994 52.5954H264.231L264.33 51.3634H263.093L262.994 52.5954Z" fill="#43435B"/>
<path d="M265.444 52.5954H266.681L266.779 51.3634H265.543L265.444 52.5954Z" fill="#43435B"/>
<path d="M260.62 51.3634H261.856L261.955 50.1321H260.718L260.62 51.3634Z" fill="#43435B"/>
<path d="M261.856 51.3634H263.093L263.192 50.1321H261.955L261.856 51.3634Z" fill="#43435B"/>
<path d="M260.129 57.5205H261.365L261.464 56.2892H260.227L260.129 57.5205Z" fill="#43435B"/>
<path d="M263.838 57.5205H265.051L265.149 56.2892H263.937L263.838 57.5205Z" fill="#43435B"/>
<path d="M266.582 53.8267H267.819L267.917 52.5954H266.681L266.582 53.8267Z" fill="#43435B"/>
<path d="M264.329 51.3634H265.542L265.64 50.1321H264.428L264.329 51.3634Z" fill="#43435B"/>
<path d="M248.498 48.9009H249.734L249.833 47.6688H248.596L248.498 48.9009Z" fill="#43435B"/>
<path d="M247.261 48.9009H248.497L248.596 47.6688H247.359L247.261 48.9009Z" fill="#43435B"/>
<path d="M246.024 48.9009H247.261L247.36 47.6688H246.123L246.024 48.9009Z" fill="#43435B"/>
<path d="M246.123 47.6689H247.359L247.457 46.4376H246.221L246.123 47.6689Z" fill="#43435B"/>
<path d="M248.596 47.6689H249.833L249.93 46.4376H248.694L248.596 47.6689Z" fill="#43435B"/>
<path d="M251.046 47.6689H252.282L252.38 46.4376H251.144L251.046 47.6689Z" fill="#43435B"/>
<path d="M249.833 47.6689H251.046L251.144 46.4376H249.931L249.833 47.6689Z" fill="#43435B"/>
<path d="M248.694 46.4376H249.931L250.029 45.2056H248.792L248.694 46.4376Z" fill="#43435B"/>
<path d="M251.144 46.4376H252.38L252.478 45.2056H251.241L251.144 46.4376Z" fill="#43435B"/>
<path d="M246.318 45.2056H247.555L247.653 43.9743H246.417L246.318 45.2056Z" fill="#43435B"/>
<path d="M250.029 45.2056H251.241L251.34 43.9743H250.127L250.029 45.2056Z" fill="#43435B"/>
<path d="M252.282 47.6689H253.519L253.617 46.4376H252.38L252.282 47.6689Z" fill="#43435B"/>
<path d="M253.421 48.9009H254.657L254.756 47.6688H253.519L253.421 48.9009Z" fill="#43435B"/>
<path d="M254.656 48.9009H255.893L255.992 47.6688H254.755L254.656 48.9009Z" fill="#43435B"/>
<path d="M255.894 48.9009H257.13L257.229 47.6688H255.992L255.894 48.9009Z" fill="#43435B"/>
<path d="M253.519 47.6689H254.755L254.853 46.4376H253.617L253.519 47.6689Z" fill="#43435B"/>
<path d="M255.992 47.6689H257.229L257.326 46.4376H256.09L255.992 47.6689Z" fill="#43435B"/>
<path d="M258.442 47.6689H259.678L259.776 46.4376H258.539L258.442 47.6689Z" fill="#43435B"/>
<path d="M257.229 47.6689H258.442L258.539 46.4376H257.326L257.229 47.6689Z" fill="#43435B"/>
<path d="M254.853 46.4376H256.09L256.188 45.2056H254.952L254.853 46.4376Z" fill="#43435B"/>
<path d="M256.09 46.4376H257.327L257.425 45.2056H256.189L256.09 46.4376Z" fill="#43435B"/>
<path d="M258.539 46.4376H259.776L259.874 45.2056H258.638L258.539 46.4376Z" fill="#43435B"/>
<path d="M253.715 45.2056H254.952L255.05 43.9743H253.813L253.715 45.2056Z" fill="#43435B"/>
<path d="M252.478 45.2056H253.715L253.813 43.9743H252.576L252.478 45.2056Z" fill="#43435B"/>
<path d="M256.286 43.9743H257.523L257.622 42.7423H256.385L256.286 43.9743Z" fill="#43435B"/>
<path d="M258.736 43.9743H259.972L260.071 42.7423H258.834L258.736 43.9743Z" fill="#43435B"/>
<path d="M254.559 50.1321H255.796L255.893 48.9009H254.657L254.559 50.1321Z" fill="#43435B"/>
<path d="M257.032 50.1321H258.245L258.343 48.9009H257.13L257.032 50.1321Z" fill="#43435B"/>
<path d="M259.482 50.1321H260.718L260.816 48.9009H259.579L259.482 50.1321Z" fill="#43435B"/>
<path d="M259.875 45.2056H261.111L261.209 43.9743H259.972L259.875 45.2056Z" fill="#43435B"/>
<path d="M263.388 47.6689H264.625L264.723 46.4376H263.486L263.388 47.6689Z" fill="#43435B"/>
<path d="M261.012 46.4376H262.249L262.348 45.2056H261.111L261.012 46.4376Z" fill="#43435B"/>
<path d="M260.816 48.9009H262.053L262.152 47.6688H260.915L260.816 48.9009Z" fill="#43435B"/>
<path d="M262.249 46.4376H263.486L263.584 45.2056H262.348L262.249 46.4376Z" fill="#43435B"/>
<path d="M264.723 46.4376H265.935L266.034 45.2056H264.821L264.723 46.4376Z" fill="#43435B"/>
<path d="M265.935 46.4376H267.148L267.247 45.2056H266.034L265.935 46.4376Z" fill="#43435B"/>
<path d="M265.739 48.9009H266.952L267.05 47.6688H265.838L265.739 48.9009Z" fill="#43435B"/>
<path d="M267.248 45.1941H268.461L268.559 43.9621H267.346L267.248 45.1941Z" fill="#43435B"/>
<path d="M261.111 45.2056H262.348L262.446 43.9743H261.209L261.111 45.2056Z" fill="#43435B"/>
<path d="M263.584 45.2056H264.821L264.92 43.9743H263.683L263.584 45.2056Z" fill="#43435B"/>
<path d="M260.719 50.1321H261.955L262.053 48.9009H260.816L260.719 50.1321Z" fill="#43435B"/>
<path d="M263.191 50.1321H264.428L264.526 48.9009H263.289L263.191 50.1321Z" fill="#43435B"/>
<path d="M265.64 50.1321H266.877L266.976 48.9009H265.739L265.64 50.1321Z" fill="#43435B"/>
<path d="M266.877 50.1321H268.113L268.212 48.9009H266.975L266.877 50.1321Z" fill="#43435B"/>
<path d="M267.05 47.6689H268.286L268.385 46.4376H267.148L267.05 47.6689Z" fill="#43435B"/>
<path d="M246.613 41.511H247.85L247.948 40.2789H246.711L246.613 41.511Z" fill="#43435B"/>
<path d="M246.711 40.2789H247.948L248.045 39.0477H246.809L246.711 40.2789Z" fill="#43435B"/>
<path d="M249.184 40.2789H250.421L250.519 39.0477H249.283L249.184 40.2789Z" fill="#43435B"/>
<path d="M250.421 40.2789H251.634L251.733 39.0477H250.519L250.421 40.2789Z" fill="#43435B"/>
<path d="M246.809 39.0477H248.046L248.144 37.8157H246.908L246.809 39.0477Z" fill="#43435B"/>
<path d="M249.283 39.0477H250.52L250.618 37.8157H249.381L249.283 39.0477Z" fill="#43435B"/>
<path d="M250.519 39.0477H251.732L251.83 37.8157H250.617L250.519 39.0477Z" fill="#43435B"/>
<path d="M246.908 37.8157H248.144L248.242 36.5837H247.006L246.908 37.8157Z" fill="#43435B"/>
<path d="M248.242 36.5837H249.479L249.577 35.3517H248.341L248.242 36.5837Z" fill="#43435B"/>
<path d="M247.048 36.0515L247.005 36.5837H248.242L248.34 35.3517H247.792C247.412 35.3517 247.078 35.6648 247.048 36.0515Z" fill="#43435B"/>
<path d="M253.811 35.3517H253.264L253.166 36.5837H254.403L254.445 36.0515C254.476 35.6648 254.193 35.3517 253.812 35.3517H253.811Z" fill="#43435B"/>
<path d="M246.571 42.0433C246.54 42.4299 246.823 42.743 247.204 42.743H247.751L247.849 41.511H246.613L246.57 42.0433H246.571Z" fill="#43435B"/>
<path d="M252.674 42.7423H253.221C253.602 42.7423 253.936 42.4291 253.966 42.0425L254.008 41.5102H252.772L252.674 42.7423Z" fill="#43435B"/>
<path d="M249.479 36.5837H250.716L250.814 35.3517H249.577L249.479 36.5837Z" fill="#43435B"/>
<path d="M251.929 36.5837H253.165L253.263 35.3517H252.027L251.929 36.5837Z" fill="#43435B"/>
<path d="M252.773 41.511H254.01L254.107 40.2789H252.871L252.773 41.511Z" fill="#43435B"/>
<path d="M247.751 42.7423H248.988L249.087 41.511H247.85L247.751 42.7423Z" fill="#43435B"/>
<path d="M248.988 42.7423H250.225L250.323 41.511H249.087L248.988 42.7423Z" fill="#43435B"/>
<path d="M251.438 42.7423H252.675L252.773 41.511H251.537L251.438 42.7423Z" fill="#43435B"/>
<path d="M250.224 42.7423H251.437L251.536 41.511H250.323L250.224 42.7423Z" fill="#43435B"/>
<path d="M252.87 40.2789H254.107L254.206 39.0477H252.969L252.87 40.2789Z" fill="#43435B"/>
<path d="M252.969 39.0477H254.206L254.304 37.8157H253.067L252.969 39.0477Z" fill="#43435B"/>
<path d="M253.067 37.8157H254.303L254.402 36.5837H253.165L253.067 37.8157Z" fill="#43435B"/>
<path d="M250.716 36.5837H251.929L252.027 35.3517H250.814L250.716 36.5837Z" fill="#43435B"/>
<path d="M256.482 41.511H257.719L257.818 40.2789H256.581L256.482 41.511Z" fill="#43435B"/>
<path d="M257.719 41.511H258.932L259.031 40.2789H257.818L257.719 41.511Z" fill="#43435B"/>
<path d="M256.581 40.2789H257.818L257.916 39.0477H256.679L256.581 40.2789Z" fill="#43435B"/>
<path d="M259.031 40.2789H260.267L260.366 39.0477H259.129L259.031 40.2789Z" fill="#43435B"/>
<path d="M255.442 39.0477H256.679L256.777 37.8157H255.541L255.442 39.0477Z" fill="#43435B"/>
<path d="M259.129 39.0477H260.366L260.464 37.8157H259.227L259.129 39.0477Z" fill="#43435B"/>
<path d="M255.541 37.8157H256.778L256.875 36.5837H255.639L255.541 37.8157Z" fill="#43435B"/>
<path d="M259.326 36.5837H260.562L260.66 35.3517H259.423L259.326 36.5837Z" fill="#43435B"/>
<path d="M258.101 36.5837H259.337L259.436 35.3517H258.199L258.101 36.5837Z" fill="#43435B"/>
<path d="M255.148 42.7423H256.385L256.483 41.511H255.246L255.148 42.7423Z" fill="#43435B"/>
<path d="M258.834 42.7423H260.071L260.17 41.511H258.932L258.834 42.7423Z" fill="#43435B"/>
<path d="M261.406 41.511H262.643L262.741 40.2789H261.504L261.406 41.511Z" fill="#43435B"/>
<path d="M261.504 40.2789H262.74L262.839 39.0477H261.602L261.504 40.2789Z" fill="#43435B"/>
<path d="M263.978 40.2789H265.214L265.312 39.0477H264.075L263.978 40.2789Z" fill="#43435B"/>
<path d="M265.214 40.2789H266.427L266.525 39.0477H265.312L265.214 40.2789Z" fill="#43435B"/>
<path d="M261.603 39.0477H262.839L262.938 37.8157H261.7L261.603 39.0477Z" fill="#43435B"/>
<path d="M264.076 39.0477H265.312L265.411 37.8157H264.174L264.076 39.0477Z" fill="#43435B"/>
<path d="M265.312 39.0477H266.525L266.624 37.8157H265.411L265.312 39.0477Z" fill="#43435B"/>
<path d="M261.7 37.8157H262.938L263.035 36.5837H261.799L261.7 37.8157Z" fill="#43435B"/>
<path d="M263.035 36.5837H264.272L264.37 35.3517H263.134L263.035 36.5837Z" fill="#43435B"/>
<path d="M264.272 36.5837H265.509L265.607 35.3517H264.37L264.272 36.5837Z" fill="#43435B"/>
<path d="M266.722 36.5837H267.959L268.058 35.3517H266.82L266.722 36.5837Z" fill="#43435B"/>
<path d="M267.565 41.511H268.802L268.901 40.2789H267.664L267.565 41.511Z" fill="#43435B"/>
<path d="M262.544 42.7423H263.781L263.879 41.511H262.643L262.544 42.7423Z" fill="#43435B"/>
<path d="M263.781 42.7423H265.018L265.116 41.511H263.879L263.781 42.7423Z" fill="#43435B"/>
<path d="M266.23 42.7423H267.468L267.565 41.511H266.329L266.23 42.7423Z" fill="#43435B"/>
<path d="M265.018 42.7423H266.23L266.329 41.511H265.116L265.018 42.7423Z" fill="#43435B"/>
<path d="M267.664 40.2789H268.9L268.999 39.0477H267.762L267.664 40.2789Z" fill="#43435B"/>
<path d="M267.762 39.0477H268.999L269.097 37.8157H267.86L267.762 39.0477Z" fill="#43435B"/>
<path d="M267.86 37.8157H269.097L269.195 36.5837H267.959L267.86 37.8157Z" fill="#43435B"/>
<path d="M261.842 36.0515L261.799 36.5837H263.036L263.134 35.3517H262.587C262.206 35.3517 261.873 35.6648 261.842 36.0515H261.842Z" fill="#43435B"/>
<path d="M268.605 35.3517H268.058L267.959 36.5837H269.196L269.238 36.0515C269.269 35.6648 268.986 35.3517 268.605 35.3517Z" fill="#43435B"/>
<path d="M261.363 42.0433C261.332 42.4299 261.616 42.743 261.996 42.743H262.544L262.642 41.511H261.406L261.363 42.0433Z" fill="#43435B"/>
<path d="M267.468 42.7423H268.015C268.396 42.7423 268.729 42.4291 268.76 42.0425L268.803 41.5102H267.566L267.468 42.7423Z" fill="#43435B"/>
<path d="M265.51 36.5837H266.723L266.82 35.3517H265.607L265.51 36.5837Z" fill="#43435B"/>
<path d="M178.072 149.375H211.445L211.681 146.397H178.308L178.072 149.375Z" fill="#C2C2D0"/>
<path d="M177.601 155.328H200.802L201.038 152.351H177.837L177.601 155.328Z" fill="#C2C2D0"/>
<path d="M183.997 74.4534H229.566L229.802 71.4723H184.233L183.997 74.4534Z" fill="#C2C2D0"/>
<path d="M183.526 80.4149H215.205L215.441 77.4345H183.761L183.526 80.4149Z" fill="#C2C2D0"/>
<path d="M179.496 131.377H179.925L179.923 131.403H261.196L261.198 131.377H261.627L265.172 86.9867H183.007L179.497 131.377H179.496ZM182.647 102.385H193.376L192.874 108.732H182.145L182.647 102.385ZM193.711 109.641H239.252L238.747 115.987H193.209L193.711 109.641ZM182.073 109.641H192.802L192.299 115.987H181.571L182.073 109.641ZM191.15 130.494H180.423L180.925 124.15H191.652L191.15 130.494ZM180.997 123.241L181.499 116.896H192.227L191.724 123.241H180.997ZM237.592 130.494H192.059L192.562 124.15H238.097L237.592 130.494ZM192.634 123.241L193.137 116.896H238.675L238.17 123.241H192.634ZM249.203 130.494H238.502L239.007 124.15H249.708L249.203 130.494ZM239.079 123.241L239.584 116.896H250.287L249.781 123.241H239.079ZM239.657 115.987L240.162 109.641H250.865L250.36 115.987H239.657ZM260.839 130.494H250.112L250.618 124.15H261.345L260.839 130.494ZM261.418 123.241H250.691L251.197 116.896H261.925L261.418 123.241ZM261.997 115.987H251.269L251.775 109.641H262.504L261.997 115.987ZM252.933 95.1279H263.663L263.157 101.475H252.427L252.933 95.1279H252.933ZM263.083 102.385L262.577 108.732H251.848L252.354 102.385H263.083ZM241.318 95.1279H252.022L251.516 101.475H240.813L241.318 95.1279ZM251.444 102.385L250.938 108.732H240.235L240.741 102.385H251.444H251.444ZM194.861 95.1279H240.408L239.902 101.475H194.357L194.86 95.1279H194.861ZM239.83 102.385L239.324 108.732H193.783L194.285 102.385H239.829H239.83ZM193.95 95.1279L193.448 101.475H182.718L183.22 95.1279H193.95H193.95Z" fill="#C2C2D0"/>
<path d="M237.304 139.833H260.523L261.051 135.252H237.83L237.304 139.833Z" fill="#009CF7"/>
<path d="M186.075 48.1992H190.816L190.94 46.6192H187.938L188.194 43.381H190.581L190.705 41.801H188.319L188.564 38.7198H191.566L191.691 37.1398H186.949L186.075 48.1992Z" fill="#2A67B2"/>
<path d="M192.581 43.4597H195.742L195.867 41.8796H192.706L192.581 43.4597Z" fill="#2A67B2"/>
<path d="M196.947 48.1989H198.685L199.561 37.1395H197.822L196.947 48.1989Z" fill="#2A67B2"/>
<path d="M204.646 43.7598L203.385 37.1395H201.204L200.328 48.1989H201.893L202.527 40.1889L204.057 48.1989H205.843L206.72 37.1395H205.171L204.646 43.7598Z" fill="#2A67B2"/>
<path d="M210.271 46.161L209.659 37.1395H207.905L208.734 48.1989H211.327L213.91 37.1395H212.314L210.271 46.161Z" fill="#2A67B2"/>
<path d="M217.603 37.0137C215.896 37.0137 214.884 38.0251 214.743 39.7947L214.287 45.5454C214.147 47.3149 214.999 48.3256 216.705 48.3256C218.412 48.3256 219.425 47.3149 219.565 45.5454L220.022 39.7947C220.162 38.0251 219.31 37.0137 217.603 37.0137ZM218.292 39.684L217.818 45.6561C217.756 46.4461 217.384 46.7463 216.831 46.7463C216.279 46.7463 215.954 46.4461 216.017 45.6561L216.491 39.684C216.554 38.894 216.925 38.5937 217.478 38.5937C218.031 38.5937 218.355 38.894 218.292 39.684Z" fill="#2A67B2"/>
<path d="M220.871 48.1989H222.609L223.488 37.1395H221.749L220.871 48.1989Z" fill="#2A67B2"/>
<path d="M227.606 37.0137C225.899 37.0137 224.934 38.0251 224.793 39.7947L224.337 45.5454C224.196 47.3149 225.001 48.3256 226.707 48.3256C228.414 48.3256 229.379 47.3149 229.52 45.5454L229.637 44.076H227.993L227.867 45.6561C227.805 46.4461 227.435 46.7304 226.881 46.7304C226.328 46.7304 226.003 46.4461 226.066 45.6561L226.541 39.684C226.604 38.894 226.975 38.5937 227.528 38.5937C228.081 38.5937 228.405 38.894 228.342 39.684L228.248 40.869H229.892L229.977 39.7947C230.118 38.0251 229.313 37.0137 227.607 37.0137H227.606Z" fill="#2A67B2"/>
<path d="M230.762 48.1989H235.503L235.629 46.6189H232.627L232.884 43.3808H235.271L235.396 41.8007H233.01L233.255 38.7195H236.258L236.383 37.1395H231.642L230.762 48.1989Z" fill="#2A67B2"/>
<path d="M185.468 55.8602H234.893L235.131 52.8783H185.703L185.468 55.8602Z" fill="#2A67B2"/>
<path d="M268.516 155.925H241.594C240.744 155.925 239.998 156.615 239.926 157.465L236.58 197.56C236.508 198.418 237.142 199.113 237.996 199.113H265.048C265.902 199.113 266.651 198.418 266.719 197.56L269.931 157.465C269.999 156.615 269.365 155.925 268.515 155.925H268.516Z" fill="#43435B"/>
<path d="M267.596 155.926H240.675C239.825 155.926 239.078 156.615 239.007 157.465L235.66 197.56C235.588 198.418 236.223 199.113 237.077 199.113H264.129C264.983 199.113 265.731 198.418 265.8 197.56L269.012 157.465C269.08 156.615 268.446 155.926 267.596 155.926H267.596Z" fill="#5E5E80"/>
<path d="M265.828 159.422H241.871C241.497 159.422 241.168 159.726 241.137 160.1L240.599 166.571C240.567 166.946 240.846 167.25 241.221 167.25H265.199C265.573 167.25 265.902 166.946 265.932 166.571L266.452 160.1C266.482 159.726 266.203 159.422 265.829 159.422H265.828Z" fill="#7CA0B6"/>
<path d="M244.755 170.334H240.766C240.501 170.334 240.268 170.549 240.246 170.815L239.913 174.812C239.891 175.078 240.089 175.294 240.354 175.294H244.345C244.61 175.294 244.843 175.078 244.865 174.812L245.196 170.815C245.218 170.55 245.02 170.334 244.755 170.334Z" fill="#43435B"/>
<path d="M251.553 170.334H247.563C247.298 170.334 247.065 170.549 247.043 170.815L246.713 174.812C246.691 175.078 246.889 175.294 247.154 175.294H251.145C251.41 175.294 251.643 175.078 251.665 174.812L251.993 170.815C252.014 170.55 251.817 170.334 251.552 170.334H251.553Z" fill="#43435B"/>
<path d="M258.35 170.334H254.361C254.096 170.334 253.863 170.549 253.842 170.815L253.515 174.812C253.494 175.078 253.691 175.294 253.956 175.294H257.947C258.213 175.294 258.446 175.078 258.467 174.812L258.791 170.815C258.813 170.55 258.615 170.334 258.35 170.334H258.35Z" fill="#43435B"/>
<path d="M265.149 170.334H261.159C260.894 170.334 260.661 170.549 260.64 170.815L260.317 174.812C260.295 175.078 260.493 175.294 260.758 175.294H264.749C265.014 175.294 265.247 175.078 265.268 174.812L265.589 170.815C265.611 170.55 265.413 170.334 265.148 170.334H265.149Z" fill="#FF6133"/>
<path d="M244.197 177.08H240.205C239.939 177.08 239.706 177.296 239.684 177.562L239.351 181.565C239.329 181.831 239.526 182.047 239.792 182.047H243.786C244.051 182.047 244.285 181.832 244.307 181.565L244.638 177.562C244.66 177.296 244.463 177.08 244.197 177.08Z" fill="#43435B"/>
<path d="M251 177.08H247.008C246.742 177.08 246.509 177.296 246.488 177.562L246.158 181.565C246.136 181.831 246.333 182.047 246.599 182.047H250.593C250.859 182.047 251.092 181.832 251.114 181.565L251.442 177.562C251.463 177.296 251.266 177.08 251 177.08Z" fill="#43435B"/>
<path d="M257.803 177.08H253.81C253.545 177.08 253.312 177.296 253.29 177.562L252.963 181.565C252.941 181.831 253.139 182.047 253.404 182.047H257.398C257.664 182.047 257.897 181.832 257.919 181.565L258.243 177.562C258.265 177.296 258.067 177.08 257.802 177.08H257.803Z" fill="#43435B"/>
<path d="M264.605 177.08H260.614C260.348 177.08 260.116 177.296 260.094 177.562L259.77 181.565C259.749 181.831 259.946 182.047 260.212 182.047H264.206C264.472 182.047 264.705 181.832 264.726 181.565L265.048 177.562C265.07 177.296 264.871 177.08 264.606 177.08H264.605Z" fill="#43435B"/>
<path d="M243.638 183.836H239.643C239.377 183.836 239.145 184.052 239.123 184.319L238.789 188.328C238.767 188.595 238.964 188.811 239.23 188.811H243.228C243.494 188.811 243.727 188.595 243.749 188.328L244.08 184.319C244.102 184.052 243.904 183.836 243.638 183.836Z" fill="#43435B"/>
<path d="M250.446 183.836H246.452C246.186 183.836 245.953 184.052 245.931 184.319L245.6 188.328C245.578 188.595 245.775 188.811 246.041 188.811H250.039C250.305 188.811 250.538 188.595 250.56 188.328L250.888 184.319C250.91 184.052 250.712 183.836 250.447 183.836H250.446Z" fill="#43435B"/>
<path d="M257.254 183.836H253.26C252.994 183.836 252.761 184.052 252.739 184.319L252.412 188.328C252.39 188.595 252.588 188.811 252.854 188.811H256.852C257.118 188.811 257.35 188.595 257.372 188.328L257.697 184.319C257.719 184.052 257.521 183.836 257.255 183.836H257.254Z" fill="#43435B"/>
<path d="M264.063 183.836H260.068C259.802 183.836 259.569 184.052 259.547 184.319L259.223 188.328C259.201 188.595 259.399 188.811 259.665 188.811H263.662C263.928 188.811 264.161 188.595 264.183 188.328L264.505 184.319C264.526 184.052 264.328 183.836 264.063 183.836Z" fill="#3D575A"/>
<path d="M243.078 190.603H239.08C238.814 190.603 238.581 190.819 238.559 191.086L238.225 195.101C238.203 195.368 238.4 195.585 238.666 195.585H242.666C242.932 195.585 243.166 195.368 243.188 195.101L243.52 191.086C243.542 190.819 243.344 190.603 243.078 190.603Z" fill="#43435B"/>
<path d="M249.892 190.603H245.894C245.628 190.603 245.394 190.819 245.373 191.086L245.041 195.101C245.019 195.368 245.218 195.585 245.483 195.585H249.484C249.75 195.585 249.983 195.368 250.005 195.101L250.334 191.086C250.356 190.819 250.158 190.603 249.892 190.603Z" fill="#43435B"/>
<path d="M256.705 190.603H252.707C252.441 190.603 252.208 190.819 252.186 191.086L251.858 195.101C251.836 195.368 252.034 195.585 252.3 195.585H256.3C256.566 195.585 256.799 195.368 256.821 195.101L257.147 191.086C257.168 190.819 256.971 190.603 256.705 190.603Z" fill="#43435B"/>
<path d="M263.804 183.836H260.325C259.917 183.836 259.559 184.168 259.526 184.578L258.695 194.841C258.662 195.251 258.966 195.585 259.375 195.585H262.859C263.268 195.585 263.626 195.252 263.659 194.841L264.484 184.578C264.516 184.168 264.212 183.836 263.804 183.836Z" fill="#43435B"/>
<path d="M256.668 163.519C256.652 163.519 256.648 163.519 256.427 163.741C256.422 163.746 256.419 163.753 256.418 163.76L256.241 165.904C256.241 165.909 256.242 165.914 256.245 165.919C256.268 165.96 256.329 166.034 256.432 166.146C256.437 166.151 256.444 166.154 256.451 166.154C256.458 166.154 256.465 166.152 256.471 166.146C256.592 166.034 256.666 165.959 256.696 165.919C256.699 165.914 256.701 165.909 256.702 165.904L256.878 163.76C256.878 163.753 256.877 163.746 256.873 163.741C256.688 163.519 256.684 163.519 256.668 163.519H256.668Z" fill="#3D575A"/>
<path d="M256.934 160.537C256.924 160.525 256.906 160.525 256.895 160.537C256.773 160.648 256.7 160.722 256.67 160.763C256.667 160.768 256.665 160.773 256.664 160.778L256.488 162.921C256.488 162.926 256.488 162.931 256.491 162.936C256.515 162.977 256.576 163.05 256.678 163.162C256.683 163.168 256.69 163.17 256.697 163.17C256.704 163.17 256.711 163.168 256.717 163.162C256.839 163.05 256.912 162.976 256.942 162.936C256.945 162.931 256.947 162.926 256.948 162.921L257.125 160.778C257.125 160.773 257.124 160.768 257.121 160.763C257.098 160.723 257.037 160.649 256.934 160.537H256.934Z" fill="#3D575A"/>
<path d="M260.202 160.523C260.197 160.52 260.193 160.518 260.187 160.518H258.447C258.442 160.518 258.436 160.52 258.432 160.523C258.389 160.55 258.309 160.617 258.188 160.728C258.176 160.739 258.175 160.757 258.185 160.767C258.288 160.879 258.356 160.947 258.395 160.973C258.399 160.976 258.404 160.977 258.41 160.977H260.149C260.154 160.977 260.16 160.976 260.165 160.973C260.208 160.946 260.287 160.879 260.408 160.767C260.414 160.762 260.418 160.755 260.418 160.748C260.418 160.741 260.416 160.733 260.412 160.728C260.309 160.616 260.24 160.549 260.202 160.523Z" fill="#3D575A"/>
<path d="M259.788 165.698C259.783 165.695 259.779 165.693 259.773 165.693H258.032C258.027 165.693 258.021 165.695 258.017 165.698C257.974 165.725 257.894 165.792 257.773 165.904C257.761 165.915 257.76 165.932 257.769 165.943C257.872 166.055 257.941 166.122 257.979 166.149C257.984 166.152 257.989 166.153 257.994 166.153H259.735C259.74 166.153 259.746 166.152 259.751 166.149C259.794 166.122 259.873 166.055 259.994 165.943C260 165.938 260.004 165.931 260.004 165.923C260.004 165.916 260.002 165.909 259.998 165.904C259.895 165.792 259.826 165.725 259.788 165.698Z" fill="#3D575A"/>
<path d="M257.999 163.517C257.989 163.507 257.971 163.507 257.96 163.517C257.839 163.629 257.765 163.703 257.736 163.744C257.732 163.749 257.73 163.754 257.73 163.759L257.587 165.498C257.587 165.504 257.588 165.509 257.59 165.513C257.614 165.554 257.675 165.628 257.777 165.74C257.782 165.745 257.789 165.749 257.796 165.749C257.803 165.749 257.811 165.746 257.816 165.74C257.938 165.628 258.011 165.554 258.041 165.513C258.045 165.509 258.047 165.504 258.047 165.498L258.19 163.759C258.19 163.754 258.189 163.749 258.187 163.744C258.163 163.704 258.102 163.629 258 163.517H257.999Z" fill="#3D575A"/>
<path d="M260.173 163.517C260.163 163.507 260.145 163.507 260.134 163.517C260.013 163.629 259.94 163.703 259.91 163.744C259.907 163.749 259.905 163.754 259.904 163.759L259.761 165.498C259.761 165.504 259.762 165.509 259.764 165.513C259.788 165.554 259.849 165.628 259.952 165.74C259.957 165.745 259.963 165.749 259.97 165.749C259.978 165.749 259.985 165.746 259.991 165.74C260.112 165.628 260.186 165.554 260.215 165.513C260.218 165.509 260.22 165.504 260.221 165.498L260.363 163.759C260.363 163.754 260.362 163.749 260.36 163.744C260.336 163.704 260.275 163.629 260.173 163.517H260.173Z" fill="#3D575A"/>
<path d="M258.212 160.93C258.202 160.92 258.184 160.92 258.172 160.93C258.051 161.042 257.978 161.116 257.948 161.157C257.945 161.162 257.943 161.167 257.942 161.172L257.8 162.91C257.8 162.915 257.8 162.921 257.803 162.925C257.826 162.966 257.888 163.04 257.99 163.152C257.995 163.157 258.002 163.16 258.009 163.16C258.016 163.16 258.023 163.157 258.029 163.152C258.15 163.04 258.224 162.966 258.253 162.925C258.257 162.921 258.259 162.915 258.259 162.91L258.402 161.172C258.402 161.167 258.401 161.162 258.399 161.157C258.375 161.117 258.314 161.042 258.212 160.93Z" fill="#3D575A"/>
<path d="M260.385 160.93C260.38 160.925 260.373 160.922 260.366 160.922C260.359 160.922 260.351 160.926 260.346 160.93C260.225 161.042 260.152 161.116 260.122 161.157C260.118 161.162 260.116 161.167 260.116 161.172L259.974 162.91C259.974 162.915 259.974 162.921 259.977 162.925C260 162.966 260.062 163.04 260.164 163.152C260.169 163.157 260.176 163.16 260.183 163.16C260.19 163.16 260.197 163.157 260.203 163.152C260.324 163.04 260.398 162.966 260.427 162.925C260.431 162.921 260.433 162.915 260.433 162.91L260.575 161.172C260.575 161.167 260.575 161.162 260.572 161.157C260.549 161.117 260.487 161.042 260.385 160.93Z" fill="#3D575A"/>
<path d="M264.014 160.523C264.01 160.52 264.005 160.518 263.999 160.518H262.26C262.255 160.518 262.249 160.52 262.244 160.523C262.201 160.55 262.122 160.617 262.001 160.728C261.989 160.739 261.987 160.757 261.997 160.767C262.1 160.879 262.169 160.947 262.207 160.973C262.212 160.976 262.217 160.977 262.222 160.977H263.962C263.967 160.977 263.973 160.976 263.977 160.973C264.02 160.946 264.1 160.879 264.221 160.767C264.227 160.762 264.23 160.755 264.231 160.748C264.231 160.741 264.229 160.733 264.224 160.728C264.121 160.616 264.053 160.549 264.014 160.523Z" fill="#3D575A"/>
<path d="M262.024 160.93C262.02 160.925 262.012 160.922 262.005 160.922C261.998 160.922 261.99 160.926 261.985 160.93C261.864 161.042 261.791 161.116 261.761 161.157C261.758 161.162 261.756 161.167 261.755 161.172L261.613 162.91C261.613 162.915 261.613 162.921 261.616 162.925C261.64 162.966 261.701 163.04 261.803 163.152C261.808 163.157 261.815 163.16 261.822 163.16C261.829 163.16 261.836 163.157 261.842 163.152C261.964 163.04 262.037 162.966 262.067 162.925C262.07 162.921 262.072 162.915 262.072 162.91L262.215 161.172C262.215 161.167 262.214 161.162 262.211 161.157C262.188 161.117 262.126 161.042 262.024 160.93Z" fill="#3D575A"/>
<path d="M264.198 160.93C264.193 160.925 264.186 160.922 264.179 160.922C264.172 160.922 264.164 160.926 264.158 160.93C264.037 161.042 263.964 161.116 263.934 161.157C263.931 161.162 263.929 161.167 263.928 161.172L263.787 162.91C263.787 162.915 263.788 162.921 263.79 162.925C263.814 162.966 263.875 163.04 263.978 163.152C263.983 163.157 263.99 163.16 263.997 163.16C264.004 163.16 264.011 163.157 264.017 163.152C264.138 163.04 264.211 162.966 264.241 162.925C264.245 162.921 264.246 162.915 264.247 162.91L264.389 161.172C264.389 161.167 264.388 161.162 264.385 161.157C264.362 161.117 264.301 161.042 264.198 160.93Z" fill="#3D575A"/>
<path d="M263.603 165.698C263.598 165.695 263.593 165.693 263.588 165.693H261.847C261.842 165.693 261.836 165.695 261.832 165.698C261.789 165.725 261.709 165.792 261.588 165.904C261.576 165.915 261.575 165.932 261.585 165.943C261.688 166.055 261.756 166.122 261.795 166.149C261.8 166.152 261.805 166.153 261.81 166.153H263.551C263.556 166.153 263.562 166.152 263.567 166.149C263.61 166.122 263.689 166.055 263.81 165.943C263.816 165.938 263.819 165.931 263.82 165.923C263.82 165.916 263.818 165.909 263.814 165.904C263.711 165.792 263.641 165.725 263.603 165.698Z" fill="#3D575A"/>
<path d="M261.813 163.517C261.803 163.507 261.785 163.507 261.774 163.517C261.652 163.629 261.579 163.703 261.549 163.744C261.546 163.749 261.544 163.754 261.543 163.759L261.401 165.498C261.401 165.504 261.402 165.509 261.405 165.513C261.428 165.554 261.489 165.628 261.592 165.74C261.598 165.745 261.604 165.749 261.611 165.749C261.618 165.749 261.626 165.746 261.631 165.74C261.753 165.628 261.826 165.554 261.856 165.513C261.859 165.509 261.861 165.504 261.862 165.498L262.004 163.759C262.004 163.754 262.003 163.749 262 163.744C261.977 163.704 261.916 163.629 261.813 163.517H261.813Z" fill="#3D575A"/>
<path d="M263.988 163.517C263.978 163.507 263.96 163.507 263.948 163.517C263.827 163.629 263.754 163.703 263.724 163.744C263.721 163.749 263.719 163.754 263.718 163.759L263.577 165.498C263.577 165.504 263.578 165.509 263.58 165.513C263.604 165.554 263.665 165.628 263.768 165.74C263.773 165.745 263.78 165.749 263.787 165.749C263.794 165.749 263.801 165.746 263.807 165.74C263.928 165.628 264.002 165.554 264.031 165.513C264.035 165.509 264.037 165.504 264.037 165.498L264.179 163.759C264.179 163.754 264.178 163.749 264.175 163.744C264.152 163.704 264.091 163.629 263.988 163.517Z" fill="#3D575A"/>
<path d="M184.63 67.1682H158.471C157.055 67.1969 155.881 68.2921 155.744 69.6996C155.075 78.4184 154.405 87.1366 153.736 95.8554C153.637 97.231 154.692 98.3783 156.073 98.3868H182.233C183.648 98.3581 184.823 97.2629 184.959 95.8554C185.629 87.1366 186.298 78.4184 186.967 69.6996C187.065 68.3241 186.011 67.1767 184.63 67.1682H184.63Z" fill="#FFC632"/>
<path d="M164.794 72.9326C163.54 72.9326 162.502 73.3355 161.722 74.1393C160.782 75.1074 160.376 76.5651 160.338 77.8487C160.303 79.0665 160.279 80.5229 161.152 81.564C161.823 82.3646 162.807 82.7642 164.103 82.7642C165.399 82.7642 166.394 82.362 167.175 81.5575C168.114 80.5894 168.521 79.1317 168.559 77.8481C168.594 76.6303 168.617 75.1739 167.745 74.1328C167.074 73.3328 166.09 72.9326 164.794 72.9326H164.794ZM165.714 77.8233C165.621 79.0346 165.425 79.8573 165.12 80.2621C164.892 80.5659 164.577 80.7191 164.196 80.7191C163.815 80.7191 163.539 80.5659 163.354 80.2621C163.105 79.8527 163.03 79.0346 163.122 77.8233C163.215 76.6127 163.417 75.7945 163.728 75.3844C163.96 75.08 164.268 74.9268 164.641 74.9268C165.013 74.9268 165.307 75.0839 165.494 75.3968C165.734 75.801 165.807 76.612 165.714 77.8226V77.8233Z" fill="white"/>
<path d="M163.361 92.5841H166.003C169.789 86.0336 173.574 79.4831 177.359 72.9332H174.792C170.982 79.4838 167.171 86.0343 163.361 92.5841Z" fill="white"/>
<path d="M176.628 82.7773C175.357 82.7773 174.311 83.1795 173.531 83.984C172.591 84.9521 172.185 86.4098 172.147 87.6934C172.111 88.9138 172.089 90.3702 172.96 91.4152C173.63 92.2197 174.614 92.6219 175.91 92.6219C177.205 92.6219 178.201 92.2197 178.981 91.4152C179.923 90.4445 180.329 88.9803 180.366 87.6934C180.401 86.4763 180.422 85.0264 179.552 83.984C178.881 83.1795 177.906 82.7773 176.627 82.7773H176.628ZM177.522 87.6804C177.429 88.8916 177.225 89.7046 176.916 90.1192C176.689 90.423 176.385 90.5762 176.004 90.5762C175.623 90.5762 175.352 90.4171 175.164 90.1062C174.919 89.7007 174.838 88.891 174.931 87.6797C175.024 86.4691 175.228 85.6555 175.537 85.2409C175.764 84.9371 176.068 84.7839 176.449 84.7839C176.831 84.7839 177.123 84.9377 177.303 85.2409C177.545 85.6457 177.616 86.4691 177.522 87.6797V87.6804Z" fill="white"/>
<path d="M242.624 0.844681C235.506 0.848942 229.286 6.30936 228.732 13.0422C228.177 19.7751 233.501 25.2287 240.62 25.2227C247.738 25.2167 253.956 19.7546 254.509 13.0235C255.062 6.29317 249.741 0.84042 242.624 0.845534V0.844681Z" fill="#009CF7"/>
<path d="M247.25 8.46122L239.38 15.4037L236.314 12.2487C235.922 11.8447 235.231 11.8447 234.772 12.2495C234.313 12.6543 234.259 13.3106 234.652 13.7145L238.43 17.6017C238.626 17.8037 238.897 17.9051 239.176 17.9043C239.455 17.9043 239.742 17.8028 239.972 17.6L248.673 9.92455C249.132 9.51973 249.185 8.86349 248.793 8.45952C248.4 8.05555 247.709 8.05555 247.25 8.46037V8.46122Z" fill="white"/>
<path d="M157.432 55.2035C156.177 55.3332 155.55 55.3977 154.296 55.5275C153.999 54.9453 153.651 54.326 153.176 53.7608C153.802 52.6042 154.116 52.0266 154.743 50.8701C154.497 50.6628 154.205 50.4333 153.947 50.2097C153.717 49.9457 153.427 49.6921 153.133 49.5806C152.094 50.4672 151.575 50.9106 150.536 51.7978C149.965 51.4008 149.266 51.2241 148.522 51.1074C148.408 49.8329 148.352 49.1953 148.238 47.9208C147.502 47.8361 146.755 47.8478 146.011 47.9541C145.644 49.2227 145.46 49.8577 145.093 51.1263C144.358 51.2645 143.748 51.3825 143.012 51.7418C142.175 50.8623 141.758 50.4229 140.921 49.5435C140.222 49.9255 139.532 50.4392 139.016 50.8473C139.452 52.0156 139.669 52.5997 140.105 53.7686C139.81 54.073 139.531 54.3749 139.313 54.5913C139.1 54.8814 138.85 55.2556 138.645 55.4981C137.39 55.3612 136.762 55.2934 135.508 55.1565C135.169 55.8521 134.922 56.4754 134.692 57.2427C135.751 57.8796 136.28 58.1984 137.339 58.8353C137.168 59.5531 137.118 60.2761 137.161 60.9554C135.98 61.5877 135.39 61.9033 134.208 62.5356C134.35 63.211 134.418 63.9946 134.743 64.6329C136.024 64.4673 136.664 64.3838 137.944 64.2182C138.175 64.8858 138.545 65.5358 138.993 66.0697C138.364 67.221 138.049 67.7967 137.419 68.9486C137.678 69.1735 137.957 69.3867 138.287 69.6155C138.558 69.7759 138.862 70.0197 139.062 70.2537C140.089 69.3645 140.602 68.9193 141.629 68.03C142.276 68.3801 142.971 68.5294 143.64 68.7146C143.753 69.9878 143.81 70.6247 143.923 71.8985C144.672 71.9729 145.402 71.9729 146.148 71.8692C146.522 70.6071 146.709 69.9754 147.082 68.7133C147.822 68.5385 148.539 68.3351 149.149 68.0763C150.037 68.9114 150.482 69.3293 151.369 70.1644C151.965 69.9284 152.641 69.3893 153.198 68.9271C152.763 67.7595 152.545 67.1754 152.109 66.0078C152.423 65.7112 152.67 65.4888 152.862 65.2385C153.124 64.8956 153.351 64.554 153.516 64.3213C154.771 64.4575 155.398 64.5253 156.653 64.6622C157.056 63.9171 157.324 63.3088 157.507 62.5734C156.443 61.9515 155.912 61.6399 154.849 61.018C154.993 60.2702 155.055 59.5577 155.033 58.9083C156.207 58.2662 156.793 57.9448 157.968 57.3027C157.906 56.5236 157.775 55.8404 157.432 55.2061V55.2035ZM149.856 62.8453C148.275 64.8108 144.908 65.6531 142.833 63.9079C140.824 62.2181 140.763 58.9025 142.364 56.9252C143.984 54.9251 147.277 54.2823 149.409 55.8626C151.606 57.4911 151.425 60.8974 149.857 62.8453H149.856Z" fill="#2A67B2"/>
<path d="M167.748 47.6326C168.371 47.1424 168.683 46.8973 169.306 46.407C169.188 45.9689 169.039 45.5928 168.77 45.2662C168.046 45.4722 167.684 45.5752 166.959 45.7812C166.722 45.48 166.453 45.1632 166.114 44.89C166.361 44.1638 166.485 43.8006 166.732 43.075C166.566 42.9825 166.369 42.8821 166.194 42.7817C166.031 42.6552 165.833 42.5411 165.648 42.5079C165.13 43.1233 164.871 43.4316 164.353 44.0471C163.975 43.8808 163.545 43.8534 163.095 43.8645C162.895 43.1487 162.794 42.7908 162.593 42.075C162.151 42.1037 161.713 42.1891 161.286 42.3286C161.203 43.0913 161.162 43.4734 161.079 44.2361C160.66 44.3926 160.314 44.5236 159.919 44.8066C159.334 44.3926 159.042 44.1853 158.457 43.7713C158.085 44.0634 157.733 44.4291 157.473 44.7166C157.852 45.3379 158.041 45.6488 158.42 46.2701C158.279 46.4748 158.147 46.6763 158.041 46.8229C157.946 47.0107 157.838 47.2506 157.743 47.411C156.99 47.4651 156.613 47.4918 155.86 47.5459C155.734 47.9788 155.654 48.3608 155.6 48.823C156.29 49.0753 156.635 49.2018 157.325 49.4541C157.3 49.8818 157.347 50.3003 157.444 50.683C156.815 51.168 156.501 51.4112 155.871 51.8962C156.026 52.2672 156.149 52.7072 156.407 53.0371C157.143 52.8076 157.511 52.6929 158.248 52.4634C158.454 52.8206 158.739 53.1525 159.06 53.41C158.81 54.1336 158.686 54.4954 158.436 55.2191C158.613 55.3201 158.799 55.4127 159.017 55.5085C159.194 55.5711 159.398 55.6787 159.54 55.7914C160.052 55.1754 160.306 54.8677 160.818 54.2516C161.235 54.3833 161.66 54.3957 162.073 54.4309C162.273 55.146 162.374 55.5039 162.574 56.2191C163.022 56.1826 163.453 56.1057 163.881 55.9681C163.968 55.208 164.012 54.8279 164.099 54.0678C164.517 53.8898 164.918 53.6988 165.249 53.4869C165.86 53.8702 166.165 54.0619 166.775 54.4459C167.101 54.2483 167.442 53.8696 167.721 53.5469C167.342 52.9262 167.153 52.6153 166.774 51.9946C166.927 51.7926 167.049 51.6394 167.136 51.4764C167.255 51.2528 167.352 51.0337 167.425 50.8838C168.178 50.8297 168.554 50.8023 169.307 50.7482C169.465 50.2801 169.56 49.9052 169.59 49.4658C168.899 49.2227 168.553 49.1008 167.862 48.8576C167.867 48.4156 167.83 48.0023 167.748 47.6339L167.748 47.6326ZM165.43 50.5885C164.549 52.14 162.521 52.9452 160.902 52.1035C159.31 51.2756 158.9 49.1862 159.766 47.6718C160.653 46.1208 162.705 45.3509 164.307 46.1547C165.899 46.9533 166.291 49.0721 165.43 50.5891V50.5885Z" fill="#2A67B2"/>
</svg>
