<svg width="20" height="20" viewBox="0 0 20 20" fill="none" xmlns="http://www.w3.org/2000/svg">
<path d="M9.99935 16.667C6.32435 16.667 3.33268 13.6753 3.33268 10.0003C3.33268 6.32533 6.32435 3.33366 9.99935 3.33366C13.6743 3.33366 16.666 6.32533 16.666 10.0003C16.666 13.6753 13.6743 16.667 9.99935 16.667ZM9.99935 1.66699C5.39102 1.66699 1.66602 5.39199 1.66602 10.0003C1.66602 14.6087 5.39102 18.3337 9.99935 18.3337C14.6077 18.3337 18.3327 14.6087 18.3327 10.0003C18.3327 5.39199 14.6077 1.66699 9.99935 1.66699ZM12.1577 6.66699L9.99935 8.82533L7.84102 6.66699L6.66602 7.84199L8.82435 10.0003L6.66602 12.1587L7.84102 13.3337L9.99935 11.1753L12.1577 13.3337L13.3327 12.1587L11.1743 10.0003L13.3327 7.84199L12.1577 6.66699Z" fill="white"/>
</svg>
